<?xml version="1.0" encoding="UTF-8"?>
<svg width="42px" height="42px" viewBox="0 0 42 42" version="1.1" xmlns="http://www.w3.org/2000/svg" xmlns:xlink="http://www.w3.org/1999/xlink">
    <!-- Generator: Sketch 64 (93537) - https://sketch.com -->
    <title>头像</title>
    <desc>Created with Sketch.</desc>
    <g id="页面-1" stroke="none" stroke-width="1" fill="none" fill-rule="evenodd">
        <g id="页面说明-1" transform="translate(-274.000000, -447.000000)" fill-rule="nonzero">
            <g id="头像" transform="translate(274.000000, 447.000000)">
                <path d="M0,21 C0,32.5979797 9.40202025,42 21,42 C32.5979797,42 42,32.5979797 42,21 C42,9.40202025 32.5979797,0 21,0 C9.40202025,0 0,9.40202025 0,21 Z" id="路径" fill="#DEEDFF"></path>
                <path d="M29.7469219,18.5532656 C29.7469219,23.8907813 25.9027969,28.2177188 21.160875,28.2177188 C16.4187188,28.2177188 12.5746406,23.8907813 12.5746406,18.5532656 C12.5746406,13.21575 16.4187656,8.8888125 21.160875,8.8888125 C25.9028438,8.8888125 29.7469219,13.21575 29.7469219,18.5532656" id="路径" fill="#F6CAA9"></path>
                <path d="M17.8250156,26.6980781 L24.4106719,26.6980781 L24.4106719,32.1444375 L17.8250156,32.1444375 L17.8250156,26.6980781 Z M13.6599375,19.1197969 C13.6599375,19.9177969 13.0694062,20.5648125 12.3407812,20.5648125 C11.6123437,20.5648125 11.0218125,19.9177969 11.0218125,19.1197969 C11.0218125,18.3217969 11.6123438,17.6747813 12.3407812,17.6747813 C13.0694062,17.6747813 13.6599375,18.3217969 13.6599375,19.1197969 M31.2818906,19.1020312 C31.2818906,19.9000312 30.6913594,20.5470469 29.9627344,20.5470469 C29.2342969,20.5470469 28.6437656,19.9000312 28.6437656,19.1020312 C28.6437656,18.3040313 29.2342969,17.6570156 29.9627344,17.6570156 C30.6913594,17.6570156 31.2818906,18.3040313 31.2818906,19.1020312" id="形状" fill="#F6CAA9"></path>
                <path d="M17.8425,27.4785937 C17.8425,27.4785937 19.0893281,28.1203125 20.898375,28.1203125 C23.0233125,28.207125 24.410625,27.4959375 24.410625,27.4959375 L24.410625,28.1376563 C24.410625,28.1376563 22.0748437,29.3865938 21.0211406,29.3865938 C19.9674375,29.3865938 17.8249688,27.9122813 17.8249688,27.9122813 L17.8425,27.4785937 L17.8425,27.4785937 Z M20.0526094,6.50109375 C20.0526094,6.50109375 14.2424063,7.0801875 14.1822188,10.8835313 C14.1220313,14.686875 18.6686719,15.4151719 20.3535469,15.8310938 C22.0382344,16.2472031 26.6713594,16.7820469 29.3788594,12.3844219 C29.3788594,12.3844219 28.6362656,10.660125 28.2300938,9.45684375 C28.0495313,9.14484375 28.5214688,9.9924375 26.8969687,8.96732813 C25.2722812,7.94217188 23.0911406,6.26334375 20.0526094,6.50109375" id="形状" fill="#ECB485"></path>
                <path d="M15.9848906,8.57878125 C15.9848906,8.57878125 11.7489844,9.28425 11.5084219,13.0746094 C11.2676719,16.8651563 11.9400938,17.8660781 11.9400938,17.8660781 C11.9400938,17.8660781 12.8953594,17.863125 13.135875,19.2914063 C13.135875,19.2914063 13.5781406,19.5535781 13.617375,19.2914063 C13.6823438,18.8559844 13.2299531,16.7866406 14.1323906,14.863875 C15.02925,12.9533438 15.8930156,12.6803438 15.8930156,12.6803438 L15.9848906,8.57878125 Z M27.1202344,12.7206563 C27.1202344,12.7206563 28.2534375,14.181 28.4489531,15.6404063 C28.61475,16.8785156 28.8461719,19.2069375 28.8461719,19.2069375 C28.8461719,19.2069375 29.1620625,19.4299688 29.3876719,18.8949375 C29.6132813,18.3601406 29.5550625,17.8257188 29.7651563,17.6867344 C30.8736563,16.9527188 30.5844844,13.8664688 30.5249063,13.540875 C30.273,12.1626094 29.1298125,9.9485625 29.1298125,9.9485625 L27.1202344,12.7206563 L27.1202344,12.7206563 Z" id="形状" fill="#3F3F3F"></path>
                <path d="M19.9060313,5.2224375 C19.9060313,5.2224375 13.89375,5.46946875 13.8335625,9.46729688 C13.773375,13.465125 18.5220937,14.5924219 20.2069688,15.0295781 C21.8916562,15.4667813 26.5247813,16.0289531 29.2322812,11.4065625 C29.2322812,11.4065625 29.9092969,9.31396875 29.503125,8.04909375 C29.3225625,7.72115625 28.3748906,8.89232812 26.7503906,7.81485938 C25.1257031,6.73729687 22.9445625,4.97264062 19.9060312,5.2224375" id="路径" fill="#3F3F3F"></path>
                <path d="M36.3323437,35.3496094 C35.2637344,34.5105 33.2514375,33.2740313 31.2562031,32.3038125 C28.0175625,30.7290938 24.4130156,30.0238125 24.4130156,30.0238125 L24.41025,30.1306875 C24.1475625,30.411 22.8808125,31.65975 21.1353281,31.65975 C19.4175469,31.65975 18.1320937,30.4875469 17.8350937,30.1919063 L17.8195312,30.040125 C17.8195312,30.040125 14.3483437,30.5159063 11.1097031,32.090625 C8.89345312,33.1681406 6.6564375,34.5743906 5.71476562,35.399625 C9.54426562,39.4630781 14.9757656,42 21,42 C27.0489375,42 32.5003594,39.4423125 36.3323437,35.3496094 L36.3323437,35.3496094 Z" id="路径" fill="#238AFF"></path>
            </g>
        </g>
    </g>
</svg>