<?xml version="1.0" encoding="UTF-8"?>
<svg width="87px" height="22px" viewBox="0 0 87 22" version="1.1" xmlns="http://www.w3.org/2000/svg" xmlns:xlink="http://www.w3.org/1999/xlink">
    <!-- Generator: Sketch 64 (93537) - https://sketch.com -->
    <title>logo</title>
    <desc>Created with Sketch.</desc>
    <g id="页面-1" stroke="none" stroke-width="1" fill="none" fill-rule="evenodd">
        <g id="页面说明-1" transform="translate(-86.000000, -425.000000)" fill="#FFFFFF" fill-rule="nonzero">
            <g id="logo" transform="translate(86.000000, 425.000000)">
                <path d="M22.5456,13.3232 C22.7744,12.7072 22.9152,12.0736 22.9856,11.4224 C23.2496,9.2576 22.9328,7.3568 22.0704,5.9312 C20.7856,5.0512 19.2896,4.4704 17.7408,4.2592 C18.04,4.4704 18.3216,4.7168 18.5504,4.9808 C18.7792,5.2272 18.9904,5.5088 19.1664,5.808 C19.6592,6.6352 19.9408,7.568 19.976,8.5184 C19.976,9.1344 19.9056,9.7504 19.7296,10.3488 C19.1664,12.4784 17.6176,13.7808 15.3648,14.0448 C16.1216,14.1152 16.896,14.168 17.6704,14.168 C20.416,14.168 21.9648,13.5872 22.5456,13.3232 Z" id="路径"></path>
                <path d="M13.5872,3.1152 C14.0448,3.0272 14.4848,2.992 14.9424,2.992 C17.1248,2.992 19.5536,3.7664 20.9264,4.4352 C20.6272,4.0304 20.2752,3.6608 19.9056,3.3264 C18.9024,2.3936 17.7232,1.6368 16.456,1.1088 C15.84,0.8448 15.1712,0.704 14.5024,0.704 C14.3792,0.704 14.256,0.704 14.1504,0.7216 C10.5248,0.9856 8.9936,3.168 8.976,3.1856 C6.6176,6.248 8.6592,9.2576 8.9936,9.7328 C8.9056,9.152 8.9056,8.5536 8.9584,7.9552 C9.2752,5.2976 10.912,3.5552 13.5872,3.1152 Z" id="路径"></path>
                <path d="M1.584,15.9632 C1.0208,16.3504 0.616,16.9136 0.4224,17.5648 C0.3872,17.6704 0.3872,17.7936 0.4224,17.8992 C0.5808,18.4448 0.8448,18.9376 1.1968,19.3776 C1.5312,19.8 1.9008,20.2048 2.3232,20.5392 C2.8512,20.9616 3.432,21.3136 4.0656,21.56 L4.0656,21.56 C4.488,21.5952 4.8928,21.5424 5.2976,21.4192 C5.6496,21.296 5.9312,21.0144 6.0544,20.6448 C6.1424,20.3632 6.16,20.0816 6.1248,19.7824 C6.1072,19.6944 6.0544,19.624 5.9664,19.5888 C4.5232,19.0432 2.6752,18.0048 1.9536,16.0864 C1.9008,15.9632 1.76,15.8928 1.6368,15.928 C1.6016,15.9456 1.6016,15.9456 1.584,15.9632 Z" id="路径"></path>
                <path d="M21.5424,14.9776 L21.5952,14.9248 C21.6128,14.9072 21.648,14.872 21.6656,14.8544 C21.6832,14.8368 21.6832,14.8368 21.7008,14.8192 C20.416,15.1536 19.0784,15.3296 17.7584,15.3296 C16.72,15.3472 15.6816,15.224 14.6608,15.0128 C12.144,14.3088 11.1936,13.4112 11.088,13.288 C10.8064,13.0944 10.56,12.8656 10.3136,12.6368 L10.1728,12.4432 L8.7296,10.648 C7.2864,9.1344 6.6,7.48 6.7232,5.7552 C6.864,3.8368 8.0432,2.1296 9.8736,1.1792 C11.0352,0.616 12.2848,0.2816 13.5696,0.2112 C12.8832,0.088 12.2144,-2.32452946e-16 11.528,0.0176 C8.36,0.0176 5.5088,1.5488 4.1184,4.0304 C3.5552,4.9808 3.1504,6.0016 2.9216,7.0752 C2.8864,7.2864 2.8512,7.5152 2.7984,7.7264 C2.5872,8.9936 2.7104,10.384 3.2032,12.0032 C3.2912,12.2848 3.3968,12.5664 3.52,12.848 C3.5376,12.8832 3.5376,12.9184 3.52,12.9536 C3.5024,12.9888 3.4672,13.0064 3.432,13.0064 C2.5696,13.0768 1.8656,13.3584 1.3376,13.816 C0.7568,14.3616 0.3696,15.1008 0.2464,15.8928 L0.2112,16.0864 C0.2112,16.104 0.2112,16.1216 0.1936,16.1568 C0.176,16.2624 0.1584,16.3504 0.1584,16.368 C0.1584,16.3856 0.1584,16.3856 0.1584,16.4032 C0.1584,16.4032 0.1584,16.4384 0.1584,16.4384 C0.1584,16.5088 0.1584,16.5616 0.1584,16.6144 L0.1584,16.632 C0.616,15.664 1.232,15.2592 1.7248,15.0832 C1.7424,15.0656 1.7424,15.0656 1.76,15.0656 C1.936,15.0128 2.112,14.9776 2.3056,14.9776 L2.3408,14.9776 C3.3616,15.0128 4.312,15.3472 5.016,15.6288 C5.0336,15.6288 5.0512,15.6464 5.0688,15.6816 C5.7376,16.7728 6.4064,17.9696 6.6528,19.2896 C6.6528,19.2896 6.6528,19.3072 6.6528,19.3072 L6.6704,19.4656 C6.688,19.5536 6.7056,19.6416 6.7056,19.7296 C6.7056,19.7472 6.7056,19.7648 6.7056,19.7824 C6.7408,20.1696 6.7232,20.5568 6.6176,20.944 C6.512,21.384 6.1952,21.7536 5.7552,21.8944 C6.1952,21.912 6.6528,21.912 7.0928,21.8592 C8.3424,21.7536 9.8384,21.1376 10.7184,20.3632 C11.4576,19.7296 11.9328,18.832 12.0384,17.8816 C12.0384,17.8464 12.056,17.8288 12.0912,17.8112 C12.1088,17.7936 12.144,17.7936 12.1792,17.7936 C13.1472,17.952 14.1504,18.0576 15.136,18.0928 C17.6176,18.1808 19.976,17.0544 21.4896,15.0656 L21.5424,14.9776 Z" id="路径"></path>
                <path d="M42.2048,17.8816 C40.7968,17.8816 39.4592,17.3008 38.5088,16.28 C36.4672,14.0976 36.4672,10.7008 38.5088,8.5184 C40.392,6.4768 43.5776,6.336 45.6192,8.2192 C45.7248,8.3248 45.8304,8.4128 45.9184,8.5184 C47.96,10.7008 47.96,14.0976 45.9184,16.28 C44.968,17.3008 43.6304,17.8992 42.2048,17.8816 Z M42.2224,8.5712 C41.272,8.5536 40.3568,8.9584 39.7232,9.6624 C38.3152,11.1936 38.3152,13.552 39.7232,15.0832 C40.3568,15.8048 41.272,16.2096 42.2224,16.1744 C43.1728,16.192 44.088,15.7872 44.7216,15.0832 C46.1296,13.552 46.1296,11.1936 44.7216,9.6624 C44.088,8.9584 43.1904,8.5712 42.2224,8.5712 Z" id="形状"></path>
                <path d="M55.9152,17.8816 L55.9152,12.232 C55.9152,11.1584 55.6336,10.296 55.088,9.68 C54.5424,9.064 53.8032,8.7648 52.8528,8.7648 C51.9024,8.7648 51.1632,9.064 50.6176,9.68 C50.072,10.296 49.7904,11.1584 49.7904,12.232 L49.7904,17.8816 L48.1008,17.8816 L48.1008,12.232 C48.1008,10.736 48.5408,9.4864 49.3856,8.536 C50.2304,7.5856 51.392,7.0928 52.8352,7.0928 C54.2784,7.0928 55.44,7.568 56.3024,8.5184 C57.1648,9.4688 57.5872,10.7184 57.5872,12.2144 L57.5872,17.864 L55.9152,17.8816 Z" id="路径"></path>
                <path d="M58.2736,17.8816 L58.2736,12.6016 C58.2384,11.1584 58.8016,9.7504 59.8048,8.712 C60.7552,7.6736 62.1104,7.0928 63.5184,7.1104 L63.8528,7.1104 L63.8528,8.7824 L63.5184,8.7824 C62.568,8.7648 61.6528,9.1696 61.0192,9.8912 C60.3328,10.6304 59.9456,11.5984 59.9632,12.6016 L59.9632,17.8816 L58.2736,17.8816 Z" id="路径"></path>
                <path d="M69.3088,17.8816 C67.9008,17.8992 66.5456,17.3008 65.5952,16.28 C63.5536,14.0976 63.5536,10.7008 65.5952,8.5184 C67.4784,6.4592 70.6816,6.336 72.7232,8.2192 C72.8112,8.3072 72.9168,8.3952 73.0048,8.5008 C74.008,9.5392 74.5712,10.9296 74.536,12.3728 L74.536,12.7072 L65.7712,12.7072 C65.824,13.6048 66.1936,14.4496 66.8096,15.1008 C67.4432,15.8224 68.3584,16.2272 69.3088,16.2096 C69.96,16.2096 70.5936,16.016 71.1392,15.6464 C71.7024,15.2768 72.1424,14.7488 72.424,14.1504 L72.424,14.1328 L72.5472,13.9568 L74.2896,13.9568 L74.1664,14.3968 L74.1664,14.4144 C73.7792,15.4176 73.128,16.28 72.2656,16.9136 C71.4032,17.5472 70.3648,17.8992 69.3088,17.8816 Z M72.6176,11.0176 C72.3888,10.3664 71.984,9.8032 71.4736,9.3632 C70.2064,8.3072 68.3584,8.3072 67.1088,9.3632 C66.5808,9.8032 66.1936,10.384 65.9648,11.0352 L72.6176,11.0176 Z" id="形状"></path>
                <path d="M80.872,17.8816 C79.464,17.8992 78.1088,17.3008 77.1584,16.28 C75.1168,14.0976 75.1168,10.7008 77.1584,8.5184 C79.0416,6.4592 82.2448,6.336 84.2864,8.2192 C84.3744,8.3072 84.48,8.3952 84.568,8.5008 C85.5712,9.5392 86.1344,10.9296 86.0992,12.3728 L86.0992,12.7072 L77.3344,12.7072 C77.3872,13.6048 77.7568,14.4496 78.3728,15.1008 C78.9888,15.8224 79.9216,16.2272 80.872,16.2096 C81.5232,16.2096 82.1744,16.016 82.7024,15.6464 C83.248,15.2768 83.7056,14.7488 83.9872,14.1504 L83.9872,14.1328 L84.1104,13.9568 L85.8528,13.9568 L85.7296,14.3968 L85.7296,14.4144 C85.3424,15.4176 84.6912,16.28 83.8288,16.9136 C82.9664,17.5472 81.928,17.8816 80.872,17.8816 Z M84.1808,11.0176 C83.952,10.3664 83.5648,9.8032 83.0368,9.3632 C81.7696,8.3072 79.9216,8.3072 78.672,9.3632 C78.144,9.8032 77.7568,10.3664 77.528,11.0176 L84.1808,11.0176 Z" id="形状"></path>
                <path d="M34.3904,10.8064 C34.5312,10.736 34.672,10.648 34.8128,10.56 C36.0272,9.7504 36.08,8.448 36.0976,8.008 C36.0976,7.2512 35.8688,6.512 35.4288,5.896 C34.4432,4.576 32.9296,4.5056 32.4368,4.488 C32.1376,4.4704 31.8384,4.4704 31.5568,4.4704 L25.9952,4.4704 L25.9952,18.1456 L31.9792,18.1456 C32.8768,18.1456 33.6688,18.0928 34.6016,17.6 C36.344,16.6848 36.52,14.8896 36.52,14.168 C36.52,12.5664 35.7632,11.3872 34.3904,10.8064 Z M27.7728,11.6512 L31.0112,11.6512 C31.8912,11.6512 32.8064,11.6512 33.5632,12.0912 L33.5632,12.0912 C34.32,12.5312 34.7776,13.3408 34.76,14.2032 C34.76,15.8752 33.4928,16.28 33.1056,16.368 C32.6656,16.4736 32.3312,16.4736 31.2224,16.4736 L27.7904,16.4736 L27.7904,11.6512 L27.7728,11.6512 Z M33.88,9.2576 C33.264,10.0496 32.1552,10.0496 31.1872,10.0496 L27.7728,10.0496 L27.7728,6.1248 L31.4336,6.1248 C32.3488,6.1248 33.3696,6.1248 33.9328,6.8816 L33.9328,6.8816 C34.1616,7.216 34.2848,7.6032 34.2672,8.008 C34.2848,8.448 34.144,8.888 33.88,9.2576 L33.88,9.2576 Z" id="形状"></path>
            </g>
        </g>
    </g>
</svg>