<?xml version="1.0" encoding="UTF-8"?>
<svg width="48px" height="48px" viewBox="0 0 48 48" version="1.1" xmlns="http://www.w3.org/2000/svg" xmlns:xlink="http://www.w3.org/1999/xlink">
    <!-- Generator: Sketch 64 (93537) - https://sketch.com -->
    <title>icon/加气泡/数据库/MySQL-python-hover</title>
    <desc>Created with Sketch.</desc>
    <defs>
        <linearGradient x1="34.5794565%" y1="0%" x2="78.1946822%" y2="93.536429%" id="linearGradient-1">
            <stop stop-color="#00DBDE" offset="0%"></stop>
            <stop stop-color="#4D1CFD" offset="84.9377429%"></stop>
            <stop stop-color="#BA72FF" stop-opacity="0.723120629" offset="100%"></stop>
        </linearGradient>
        <linearGradient x1="21.5221588%" y1="39.7089327%" x2="46.4479808%" y2="85.5639425%" id="linearGradient-2">
            <stop stop-color="#F4FAFF" offset="0%"></stop>
            <stop stop-color="#CEEBFF" offset="100%"></stop>
        </linearGradient>
    </defs>
    <g id="icon/加气泡/数据库/MySQL-python-hover" stroke="none" stroke-width="1" fill="none" fill-rule="evenodd">
        <circle id="椭圆形备份-5" fill="url(#linearGradient-1)" fill-rule="nonzero" cx="24" cy="24" r="23"></circle>
        <g id="icon/应用/数据库/MySQL-python-hover" transform="translate(10.000000, 10.000000)" fill="url(#linearGradient-2)" fill-rule="nonzero">
            <path d="M2.33333333,17.1476667 C2.33333333,19.054 6.412,20.5613333 11.4216667,20.5613333 C14.2146667,20.5613333 16.6973333,20.118 18.382,19.3643333 C18.4706667,19.4973333 18.5593333,19.586 18.6923333,19.719 L18.9583333,19.985 C19.1356667,20.1623333 19.313,20.384 19.5346667,20.5613333 C19.6233333,20.6056667 19.6676667,20.65 19.712,20.7386667 C19.8893333,20.916 20.0666667,21.049 20.51,21.3593333 C20.2883333,23.177 16.3426667,24.64 11.4216667,24.64 C6.412,24.64 2.33333333,23.1326667 2.33333333,21.2263333 L2.33333333,21.2263333 Z M15.2167773,5.790442 L15.323,5.79833333 L15.5101753,5.836327 C16.0735633,5.98276 16.6441333,6.4057 16.9633333,6.685 C17.0963333,6.818 17.2736667,7.03966667 17.4066667,7.12833333 L17.4066667,7.12833333 L18.249,7.30566667 C18.7366667,7.483 19.18,7.66033333 19.5346667,7.92633333 C21.2193333,9.25633333 22.239,10.542 23.1256667,12.5813333 C23.303,12.9803333 23.3916667,13.4236667 23.5246667,13.9113333 C23.7463333,14.5763333 23.968,15.2856667 24.1896667,15.9506667 C24.3226667,16.261 24.367,16.6156667 24.5443333,16.8816667 C24.633,17.0146667 24.8546667,17.059 24.9433333,17.1476667 C25.2536667,17.3693333 25.6526667,17.5466667 25.963,17.8126667 C26.495,18.3003333 27.027,18.8766667 27.5146667,19.4086667 C27.692,19.586 27.7806667,19.8963333 27.958,20.118 L27.958,20.118 L27.958,20.2066667 C27.7806667,20.2066667 27.6033333,20.251 27.426,20.2953333 C27.027,20.384 26.7166667,20.3396667 26.362,20.384 C26.1403333,20.4283333 25.83,20.4726667 25.6083333,20.4726667 L25.6083333,20.4726667 L25.6083333,20.517 C25.697,20.9603333 26.362,21.3593333 26.6723333,21.6696667 C27.027,22.0243333 27.3816667,22.4233333 27.6476667,22.911 L27.6476667,22.911 L27.9136667,23.2656667 C27.958,23.3986667 28.0023333,23.5316667 28.091,23.709 L28.091,23.709 L28.091,23.7533333 C28.0023333,23.709 27.0713333,23.5316667 26.0516667,23.0883333 C25.298,22.778 23.8793333,22.113 23.835,22.0686667 C20.1553333,20.2953333 20.4656667,20.1623333 19.978,19.7633333 C19.6676667,19.5416667 19.4903333,19.2313333 19.2686667,19.0096667 C18.8253333,18.5663333 18.3376667,17.9013333 18.0716667,17.325 C17.9386667,17.0146667 17.8056667,16.66 17.717,16.3496667 L17.717,16.3496667 L17.717,16.3053333 C17.6726667,16.394 17.6726667,16.4826667 17.6283333,16.6156667 C17.451,17.192 17.4953333,17.8126667 17.0076667,17.99 C16.4313333,18.1673333 16.121,17.5023333 15.988,17.192 C15.5446667,16.1723333 15.589,14.5763333 16.0766667,13.335 C16.1653333,13.069 16.2096667,12.7143333 16.387,12.4926667 C16.387,12.3153333 16.254,12.2266667 16.1653333,12.0936667 C16.0323333,11.8276667 15.9436667,11.606 15.855,11.34 C15.6776667,10.8523333 15.589,10.276 15.456,9.744 C15.4116667,9.52233333 15.4116667,9.345 15.3673333,9.12333333 C15.2786667,8.813 15.057,8.45833333 14.924,8.19233333 C14.7023333,7.79333333 14.0816667,6.99533333 14.4363333,6.286 C14.6136667,5.887 14.9683333,5.754 15.323,5.79833333 Z M2.33333333,10.941 C2.33333333,12.803 6.412,14.3103333 11.5103333,14.3103333 C12.663,14.3103333 13.8156667,14.2216667 14.8353333,14.0886667 C14.6136667,15.2856667 14.7023333,16.527 15.1013333,17.458 L15.1013333,17.458 L15.1754531,17.6166302 C15.2565,17.7683333 15.35625,17.9013333 15.456,18.0343333 C14.259,18.2116667 12.929,18.3446667 11.5103333,18.3446667 C6.45633333,18.3446667 2.33333333,16.8373333 2.33333333,14.9753333 L2.33333333,14.9753333 Z M11.599,2.91666667 C16.653,2.91666667 20.7316667,4.46833333 20.7316667,6.37466667 L20.7316667,6.37466667 L20.7316667,7.79333333 C20.4213333,7.52733333 20.111,7.26133333 19.8006667,6.99533333 C19.3573333,6.685 18.8696667,6.50766667 18.4263333,6.33033333 L18.4263333,6.33033333 L18.249,6.24166667 L17.4066667,6.10866667 L17.4066667,6.10866667 L17.0076667,5.70966667 C16.5643333,5.355 15.722,4.69 14.924,4.60133333 C14.259,4.51266667 13.727,4.823 13.4166667,5.44366667 C12.9733333,6.37466667 13.5053333,7.30566667 13.8156667,7.83766667 C13.86,7.92633333 13.9043333,8.015 13.9486667,8.05933333 L13.9486667,8.05933333 L14.0816667,8.281 C14.1703333,8.50266667 14.3476667,8.76866667 14.392,8.99033333 C14.4363333,9.079 14.4363333,9.16766667 14.4363333,9.25633333 C14.4363333,9.38933333 14.4363333,9.478 14.4806667,9.611 C14.4806667,9.78833333 14.525,9.92133333 14.5693333,10.0986667 C14.658,10.542 14.791,10.9853333 14.924,11.4286667 L14.924,11.4286667 L14.9981198,11.660724 C15.0791667,11.8913958 15.1789167,12.1158333 15.2786667,12.3153333 C14.126,12.4926667 12.8403333,12.6256667 11.466,12.6256667 C6.412,12.6256667 2.33333333,11.074 2.33333333,9.16766667 L2.33333333,9.16766667 L2.33333333,6.37466667 C2.33333333,4.46833333 6.545,2.91666667 11.599,2.91666667 Z M17.717,7.882 C17.3623333,7.749 16.9633333,8.10366667 17.2736667,8.36966667 C17.5396667,8.68 17.6283333,9.12333333 17.7613333,9.56666667 C18.2933333,9.345 18.6036667,8.63566667 18.2046667,8.19233333 C18.0716667,8.05933333 17.983,7.882 17.8056667,7.882 L17.8056667,7.882 Z" id="形状结合"></path>
        </g>
    </g>
</svg>