<?xml version="1.0" encoding="UTF-8"?>
<svg width="48px" height="48px" viewBox="0 0 48 48" version="1.1" xmlns="http://www.w3.org/2000/svg" xmlns:xlink="http://www.w3.org/1999/xlink">
    <title>icon/应用/Browser-红色-hover</title>
    <defs>
        <linearGradient x1="50%" y1="35.0014282%" x2="76.432313%" y2="82.7664399%" id="linearGradient-1">
            <stop stop-color="#FF7057" offset="0%"></stop>
            <stop stop-color="#F930AF" offset="100%"></stop>
        </linearGradient>
    </defs>
    <g id="icon/应用/Browser-红色-hover" stroke="none" stroke-width="1" fill="none" fill-rule="evenodd">
        <path d="M42.1363636,7 C43.7179063,7 45,8.28209367 45,9.86363636 L45,38.1363636 C45,39.7179063 43.7179063,41 42.1363636,41 L5.86363636,41 C4.28209367,41 3,39.7179063 3,38.1363636 L3,9.86363636 C3,8.28209367 4.28209367,7 5.86363636,7 L42.1363636,7 Z M40.2272727,15.5 L7.77272727,15.5 C7.28320215,15.5 6.87974316,15.8684929 6.82460374,16.3432253 L6.81818182,16.4545455 L6.81818182,35.3131313 C6.81818182,36.3172854 7.59344632,37.1403668 8.5780784,37.2164785 L8.72727273,37.2222222 L39.2727273,37.2222222 C40.2768814,37.2222222 41.0999627,36.4469577 41.1760744,35.4623256 L41.1818182,35.3131313 L41.1818182,16.4545455 C41.1818182,15.9273646 40.7544536,15.5 40.2272727,15.5 Z M25.1580069,20.2596783 C29.0349392,18.493773 31.4107078,19.252411 31.4107078,21.3992291 C31.4107078,22.2072742 31.0966231,23.2655424 30.7728743,23.9923049 C31.5250668,25.3310778 31.7650597,26.8706668 31.5733875,28.1568451 L31.5733875,28.1568451 L21.7675033,28.1568451 C21.7675033,31.1228647 26.0696578,32.1715702 27.6368597,29.5577754 L27.6368597,29.5577754 L31.2399746,29.5577754 C30.2703389,32.2656031 27.6706842,33.8673493 24.7730519,33.8673493 C23.726103,33.8673493 22.6775434,33.8609742 21.7417322,33.4067477 C19.1340242,34.721614 16.3636364,35.0770263 16.3636364,32.1667889 C16.3636364,30.8152657 17.057844,29.0063284 17.6763492,27.8874967 C18.7249087,26.0068395 20.1052706,24.2026835 21.7256253,22.7778465 C20.4209659,23.3340748 19.0067796,24.7334113 18.0870753,25.7629915 C18.8585961,22.4335906 21.9479006,20.0461121 25.1580069,20.2596783 Z M18.2900223,29.5147434 C16.1123686,34.0123831 18.6330994,34.5988931 21.279464,33.1549309 C19.8824831,32.3258789 18.8243622,31.0374248 18.2900223,29.5147434 L18.2900223,29.5147434 Z M24.850365,23.5014214 C23.2477279,23.5014214 21.8093812,24.6744416 21.7497857,26.3016883 L21.7497857,26.3016883 L27.9525551,26.3016883 C27.8945702,24.6744416 26.4449487,23.5014214 24.850365,23.5014214 Z M29.4166728,20.1162384 C28.6999155,20.1162384 27.8913489,20.462088 27.2535154,20.7649057 C28.6322665,21.2972274 29.8177348,22.4543097 30.6005304,23.7038312 C30.8147522,23.1476029 31.0354169,22.2917444 31.0354169,21.7020468 C31.0354169,20.7569368 30.3524841,20.1162384 29.4166728,20.1162384 Z M7.29545455,9.83333333 C6.5046832,9.83333333 5.86363636,10.4675966 5.86363636,11.25 C5.86363636,12.0324034 6.5046832,12.6666667 7.29545455,12.6666667 C8.08622589,12.6666667 8.72727273,12.0324034 8.72727273,11.25 C8.72727273,10.4675966 8.08622589,9.83333333 7.29545455,9.83333333 Z M13.0227273,9.83333333 C12.2319559,9.83333333 11.5909091,10.4675966 11.5909091,11.25 C11.5909091,12.0324034 12.2319559,12.6666667 13.0227273,12.6666667 C13.8134986,12.6666667 14.4545455,12.0324034 14.4545455,11.25 C14.4545455,10.4675966 13.8134986,9.83333333 13.0227273,9.83333333 Z M18.75,9.83333333 C17.9592287,9.83333333 17.3181818,10.4675966 17.3181818,11.25 C17.3181818,12.0324034 17.9592287,12.6666667 18.75,12.6666667 C19.5407713,12.6666667 20.1818182,12.0324034 20.1818182,11.25 C20.1818182,10.4675966 19.5407713,9.83333333 18.75,9.83333333 Z" id="形状结合" fill="url(#linearGradient-1)" fill-rule="nonzero"></path>
    </g>
</svg>