<?xml version="1.0" encoding="UTF-8"?>
<svg width="48px" height="48px" viewBox="0 0 48 48" version="1.1" xmlns="http://www.w3.org/2000/svg" xmlns:xlink="http://www.w3.org/1999/xlink">
    <title>icon/应用/运营商网络-黄色-normal</title>
    <defs>
        <linearGradient x1="50%" y1="37.3829539%" x2="76.432313%" y2="70.1676843%" id="linearGradient-1">
            <stop stop-color="#FFE437" offset="0%"></stop>
            <stop stop-color="#F0912C" offset="100%"></stop>
        </linearGradient>
    </defs>
    <g id="icon/应用/运营商网络-黄色-normal" stroke="none" stroke-width="1" fill="none" fill-rule="evenodd">
        <path d="M30.7755326,8 C37.9186606,8 43.7266244,13.7894737 43.7266244,20.8289474 C43.7266244,21.1578947 43.7266244,21.5526316 43.6598662,21.8815789 C46.3301944,23.3947368 47.9991495,25.6940274 47.9991495,30.3157895 C47.9991495,35.1844014 44.2371489,38.4843232 39.4305581,38.4843232 L8.25447625,38.4843232 C3.58140188,38.4843232 2.84217094e-14,34.3947368 2.84217094e-14,30.3815789 C2.84217094e-14,25 2.46366521,22.3999154 6.14175488,21.0263158 C7.07636975,16.5526316 11.0151039,13.3289474 15.6881782,13.3289474 C17.0901005,13.3289474 18.4252646,13.5921053 19.6936705,14.1842105 C22.0302077,10.3684211 26.1692164,8 30.7755326,8 Z M12.9089355,22.9916992 C12.3861491,22.9916992 11.8937988,23.0847982 11.4318848,23.2709961 C10.9699707,23.457194 10.5671387,23.7284342 10.2233887,24.0847168 C9.87963867,24.4409993 9.6155599,24.8697917 9.43115234,25.3710937 C9.24674479,25.8723958 9.15454102,26.4399414 9.15454102,27.0737305 C9.15454102,27.4640299 9.19124349,27.8328451 9.26464844,28.1801758 C9.33805339,28.5275065 9.44816081,28.854248 9.5949707,29.1604004 C9.7417806,29.4665527 9.91902669,29.7431641 10.126709,29.9902344 C10.3594564,30.2623698 10.6145833,30.4816895 10.8920898,30.6481934 C11.1695964,30.8146973 11.4784342,30.9373372 11.8186035,31.0161133 C12.1587728,31.0948893 12.5365397,31.1342773 12.9519043,31.1342773 C13.4997559,31.1342773 13.9795736,31.0465495 14.3913574,30.8710937 C14.8031413,30.695638 15.1415202,30.4673665 15.4064941,30.1862793 C15.6714681,29.9051921 15.8657227,29.6187337 15.9892578,29.3269043 C16.112793,29.0350749 16.1745605,28.7638346 16.1745605,28.5131836 C16.1745605,28.3162435 16.1065267,28.1515299 15.970459,28.019043 C15.8343913,27.886556 15.6714681,27.8203125 15.4816895,27.8203125 C15.2596842,27.8203125 15.0985514,27.8856608 14.998291,28.0163574 C14.8980306,28.147054 14.8138835,28.3162435 14.7458496,28.5239258 C14.5847168,28.9643555 14.3457031,29.2982585 14.0288086,29.5256348 C13.7119141,29.7530111 13.3243001,29.8666992 12.8659668,29.8666992 C12.4434408,29.8666992 12.0746257,29.7664388 11.7595215,29.565918 C11.4444173,29.3653971 11.2009277,29.0619303 11.0290527,28.6555176 C10.8571777,28.2491048 10.7712402,27.7397461 10.7712402,27.1274414 C10.7712402,26.2107747 10.9654948,25.5035807 11.3540039,25.0058594 C11.742513,24.508138 12.2644043,24.2592773 12.9196777,24.2592773 C13.3314616,24.2592773 13.6778971,24.355957 13.9589844,24.5493164 C14.2400716,24.7426758 14.4844564,25.0345052 14.6921387,25.4248047 C14.8174642,25.6611328 14.9311523,25.8276367 15.0332031,25.9243164 C15.1352539,26.0209961 15.2883301,26.0693359 15.4924316,26.0693359 C15.6750488,26.0693359 15.8308105,25.9995117 15.9597168,25.8598633 C16.088623,25.7202148 16.1530762,25.559082 16.1530762,25.3764648 C16.1530762,25.043457 16.0205892,24.68986 15.7556152,24.3156738 C15.4906413,23.9414876 15.1092936,23.6272786 14.6115723,23.3730469 C14.1138509,23.1188151 13.5463053,22.9916992 12.9089355,22.9916992 Z M18.1316895,22.9916992 C17.9096842,22.9916992 17.7333333,23.0668945 17.6026367,23.2172852 C17.4937229,23.3426107 17.4301898,23.5176685 17.4120375,23.7424588 L17.4065918,23.8833008 L17.4065918,30.2426758 C17.4065918,30.5291341 17.4737305,30.749349 17.6080078,30.9033203 C17.7422852,31.0572917 17.9168457,31.1342773 18.1316895,31.1342773 C18.3501139,31.1342773 18.5282552,31.0599772 18.6661133,30.911377 C18.780995,30.7875434 18.8480093,30.6121125 18.8671563,30.3850844 L18.8729004,30.2426758 L18.8729004,23.8833008 C18.8729004,23.5861003 18.8048665,23.3631999 18.6687988,23.2145996 C18.5327311,23.0659993 18.3536947,22.9916992 18.1316895,22.9916992 Z M22.8495605,25.1723633 C22.4127116,25.1723633 22.0134603,25.2430827 21.6518066,25.3845215 C21.290153,25.5259603 20.9822103,25.7273763 20.7279785,25.9887695 C20.4737467,26.2501628 20.278597,26.5652669 20.1425293,26.934082 C20.0064616,27.3028971 19.9384277,27.7093099 19.9384277,28.1533203 C19.9384277,28.59375 20.0055664,28.9956868 20.1398438,29.3591309 C20.2741211,29.7225749 20.4710612,30.037679 20.7306641,30.3044434 C20.9902669,30.5712077 21.2973145,30.7762044 21.6518066,30.9194336 C22.0062988,31.0626628 22.4055501,31.1342773 22.8495605,31.1342773 C23.2971517,31.1342773 23.6999837,31.0635579 24.0580566,30.9221191 C24.4161296,30.7806803 24.7240723,30.577474 24.9818848,30.3125 C25.2396973,30.047526 25.4366374,29.7306315 25.5727051,29.3618164 C25.7087728,28.9930013 25.7768066,28.5901693 25.7768066,28.1533203 C25.7768066,27.7128906 25.709668,27.3100586 25.5753906,26.9448242 C25.4411133,26.5795898 25.2450684,26.2644857 24.9872559,25.9995117 C24.7294434,25.7345378 24.4197103,25.5304362 24.0580566,25.387207 C23.696403,25.2439779 23.293571,25.1723633 22.8495605,25.1723633 Z M31.2895996,25.1723633 C31.0711751,25.1723633 30.893929,25.2457682 30.7578613,25.3925781 C30.6444716,25.5149197 30.5783275,25.6869936 30.5594293,25.9087999 L30.5537598,26.0478516 L30.5537598,27.8310547 C30.5537598,28.5328776 30.5125814,28.9876302 30.4302246,29.1953125 C30.3299642,29.4316406 30.1706217,29.6232096 29.9521973,29.7700195 C29.7337728,29.9168294 29.5010254,29.9902344 29.2539551,29.9902344 C28.9997233,29.9902344 28.7983073,29.9248861 28.649707,29.7941895 C28.5011068,29.6634928 28.3981608,29.482666 28.3408691,29.251709 C28.2950358,29.0669434 28.2675358,28.8472298 28.2583691,28.5925684 L28.2549316,28.3950195 L28.2549316,26.0478516 C28.2549316,25.7578125 28.1868978,25.539388 28.0508301,25.3925781 C27.9147624,25.2457682 27.7357259,25.1723633 27.5137207,25.1723633 C27.2952962,25.1723633 27.1198405,25.244873 26.9873535,25.3898926 C26.8769477,25.5107422 26.8125443,25.6831891 26.7941433,25.9072333 L26.788623,26.0478516 L26.788623,28.9536133 C26.788623,29.5372721 26.8799316,29.9848633 27.0625488,30.2963867 C27.2165202,30.5541992 27.4340495,30.7565104 27.7151367,30.9033203 C27.996224,31.0501302 28.3140137,31.1235352 28.6685059,31.1235352 C28.9621257,31.1235352 29.2235189,31.0868327 29.4526855,31.0134277 C29.6818522,30.9400228 29.8931152,30.828125 30.0864746,30.6777344 C30.2314941,30.5649414 30.3714783,30.4320068 30.506427,30.2789307 L30.6396973,30.1191406 L30.6396973,30.3071289 C30.6396973,30.5685221 30.7050456,30.7717285 30.8357422,30.916748 C30.9664388,31.0617676 31.1320475,31.1342773 31.3325684,31.1342773 C31.5330892,31.1342773 31.6969076,31.0644531 31.8240234,30.9248047 C31.9299533,30.808431 31.9917458,30.6435683 32.0094008,30.4302165 L32.0146973,30.2963867 L32.0146973,26.0478516 C32.0146973,25.7542318 31.9484538,25.5349121 31.8159668,25.3898926 C31.6834798,25.244873 31.5080241,25.1723633 31.2895996,25.1723633 Z M38.086084,22.9916992 C37.8640788,22.9916992 37.693099,23.0686849 37.5731445,23.2226562 C37.4731825,23.3509657 37.4148713,23.5302508 37.398211,23.7605116 L37.3932129,23.9047852 L37.3932129,26.0693359 C37.1174967,25.7685547 36.8346191,25.5456543 36.5445801,25.4006348 C36.254541,25.2556152 35.8982585,25.1831055 35.4757324,25.1831055 C34.7452637,25.1831055 34.1562337,25.4391276 33.7086426,25.9511719 C33.2610514,26.4632161 33.0372559,27.1775716 33.0372559,28.0942383 C33.0372559,28.5275065 33.0936523,28.9303385 33.2064453,29.3027344 C33.3192383,29.6751302 33.484847,29.9991862 33.7032715,30.2749023 C33.921696,30.5506185 34.1804036,30.7627767 34.4793945,30.911377 C34.7783854,31.0599772 35.1033366,31.1342773 35.454248,31.1342773 C35.719222,31.1342773 35.9636068,31.0975749 36.1874023,31.0241699 C36.4111979,30.950765 36.6188802,30.8433431 36.8104492,30.7019043 C36.954126,30.5958252 37.0993134,30.4660797 37.2460114,30.3126678 L37.3932129,30.1513672 L37.3932129,30.2963867 C37.3932129,30.5649414 37.4585612,30.7717285 37.5892578,30.916748 C37.7199544,31.0617676 37.8855632,31.1342773 38.086084,31.1342773 C38.2901855,31.1342773 38.4566895,31.0644531 38.5855957,30.9248047 C38.6930176,30.808431 38.7556803,30.6435683 38.773584,30.4302165 L38.7789551,30.2963867 L38.7789551,23.8295898 C38.7789551,23.5538737 38.7189779,23.3452962 38.5990234,23.2038574 C38.479069,23.0624186 38.3080892,22.9916992 38.086084,22.9916992 Z M22.8495605,26.2573242 C23.293571,26.2573242 23.647168,26.4238281 23.9103516,26.7568359 C24.1735352,27.0898437 24.305127,27.5553385 24.305127,28.1533203 C24.305127,28.7441406 24.1735352,29.2069499 23.9103516,29.541748 C23.647168,29.8765462 23.293571,30.0439453 22.8495605,30.0439453 C22.5559408,30.0439453 22.3008138,29.9678548 22.0841797,29.8156738 C21.8675456,29.6634928 21.7010417,29.4441732 21.584668,29.1577148 C21.4682943,28.8712565 21.4101074,28.5364583 21.4101074,28.1533203 C21.4101074,27.7666016 21.4691895,27.4282227 21.5873535,27.1381836 C21.7055176,26.8481445 21.8738118,26.6288249 22.0922363,26.4802246 C22.3106608,26.3316243 22.5631022,26.2573242 22.8495605,26.2573242 Z M35.8946777,26.2680664 C36.1524902,26.2680664 36.3897135,26.3423665 36.6063477,26.4909668 C36.8229818,26.6395671 36.9948568,26.8544108 37.1219727,27.135498 C37.2490885,27.4165853 37.3126465,27.7522786 37.3126465,28.1425781 C37.3126465,28.5579427 37.2490885,28.9043783 37.1219727,29.1818848 C36.9948568,29.4593913 36.8247721,29.6652832 36.6117188,29.7995605 C36.3986654,29.9338379 36.1632324,30.0009766 35.9054199,30.0009766 C35.6511882,30.0009766 35.4166504,29.9302572 35.2018066,29.7888184 C34.9869629,29.6473796 34.8177734,29.4370117 34.6942383,29.1577148 C34.5707031,28.878418 34.5089355,28.5400391 34.5089355,28.1425781 C34.5089355,27.7666016 34.5671224,27.4362793 34.6834961,27.1516113 C34.7998698,26.8669434 34.9636882,26.6485189 35.1749512,26.4963379 C35.3862142,26.3441569 35.626123,26.2680664 35.8946777,26.2680664 Z" id="形状结合" fill="url(#linearGradient-1)" fill-rule="nonzero"></path>
    </g>
</svg>