<?xml version="1.0" encoding="UTF-8"?>
<svg width="48px" height="48px" viewBox="0 0 48 48" version="1.1" xmlns="http://www.w3.org/2000/svg" xmlns:xlink="http://www.w3.org/1999/xlink">
    <!-- Generator: Sketch 64 (93537) - https://sketch.com -->
    <title>icon/加气泡/数据库/MySQL-python-红色-hover</title>
    <desc>Created with Sketch.</desc>
    <defs>
        <linearGradient x1="32.2455554%" y1="0%" x2="72.8504776%" y2="94.2263997%" id="linearGradient-1">
            <stop stop-color="#FF6B6B" offset="0%"></stop>
            <stop stop-color="#E10063" offset="84.8909362%"></stop>
            <stop stop-color="#FF59E9" stop-opacity="0.95" offset="100%"></stop>
        </linearGradient>
        <linearGradient x1="44.898219%" y1="42.762355%" x2="60.8844517%" y2="85.5639425%" id="linearGradient-2">
            <stop stop-color="#FFFFFF" offset="0%"></stop>
            <stop stop-color="#FFDDE1" offset="100%"></stop>
        </linearGradient>
    </defs>
    <g id="icon/加气泡/数据库/MySQL-python-红色-hover" stroke="none" stroke-width="1" fill="none" fill-rule="evenodd">
        <circle id="椭圆形" fill="url(#linearGradient-1)" fill-rule="nonzero" cx="24" cy="24" r="24"></circle>
        <path d="M12.3333333,27.1476667 C12.3333333,29.054 16.412,30.5613333 21.4216667,30.5613333 C24.2146667,30.5613333 26.6973333,30.118 28.382,29.3643333 C28.4706667,29.4973333 28.5593333,29.586 28.6923333,29.719 L28.9583333,29.985 C29.1356667,30.1623333 29.313,30.384 29.5346667,30.5613333 C29.6233333,30.6056667 29.6676667,30.65 29.712,30.7386667 C29.8893333,30.916 30.0666667,31.049 30.51,31.3593333 C30.2883333,33.177 26.3426667,34.64 21.4216667,34.64 C16.412,34.64 12.3333333,33.1326667 12.3333333,31.2263333 L12.3333333,31.2263333 Z M25.2167773,15.790442 L25.323,15.7983333 L25.5101753,15.836327 C26.0735633,15.98276 26.6441333,16.4057 26.9633333,16.685 C27.0963333,16.818 27.2736667,17.0396667 27.4066667,17.1283333 L27.4066667,17.1283333 L28.249,17.3056667 C28.7366667,17.483 29.18,17.6603333 29.5346667,17.9263333 C31.2193333,19.2563333 32.239,20.542 33.1256667,22.5813333 C33.303,22.9803333 33.3916667,23.4236667 33.5246667,23.9113333 C33.7463333,24.5763333 33.968,25.2856667 34.1896667,25.9506667 C34.3226667,26.261 34.367,26.6156667 34.5443333,26.8816667 C34.633,27.0146667 34.8546667,27.059 34.9433333,27.1476667 C35.2536667,27.3693333 35.6526667,27.5466667 35.963,27.8126667 C36.495,28.3003333 37.027,28.8766667 37.5146667,29.4086667 C37.692,29.586 37.7806667,29.8963333 37.958,30.118 L37.958,30.118 L37.958,30.2066667 C37.7806667,30.2066667 37.6033333,30.251 37.426,30.2953333 C37.027,30.384 36.7166667,30.3396667 36.362,30.384 C36.1403333,30.4283333 35.83,30.4726667 35.6083333,30.4726667 L35.6083333,30.4726667 L35.6083333,30.517 C35.697,30.9603333 36.362,31.3593333 36.6723333,31.6696667 C37.027,32.0243333 37.3816667,32.4233333 37.6476667,32.911 L37.6476667,32.911 L37.9136667,33.2656667 C37.958,33.3986667 38.0023333,33.5316667 38.091,33.709 L38.091,33.709 L38.091,33.7533333 C38.0023333,33.709 37.0713333,33.5316667 36.0516667,33.0883333 C35.298,32.778 33.8793333,32.113 33.835,32.0686667 C30.1553333,30.2953333 30.4656667,30.1623333 29.978,29.7633333 C29.6676667,29.5416667 29.4903333,29.2313333 29.2686667,29.0096667 C28.8253333,28.5663333 28.3376667,27.9013333 28.0716667,27.325 C27.9386667,27.0146667 27.8056667,26.66 27.717,26.3496667 L27.717,26.3496667 L27.717,26.3053333 C27.6726667,26.394 27.6726667,26.4826667 27.6283333,26.6156667 C27.451,27.192 27.4953333,27.8126667 27.0076667,27.99 C26.4313333,28.1673333 26.121,27.5023333 25.988,27.192 C25.5446667,26.1723333 25.589,24.5763333 26.0766667,23.335 C26.1653333,23.069 26.2096667,22.7143333 26.387,22.4926667 C26.387,22.3153333 26.254,22.2266667 26.1653333,22.0936667 C26.0323333,21.8276667 25.9436667,21.606 25.855,21.34 C25.6776667,20.8523333 25.589,20.276 25.456,19.744 C25.4116667,19.5223333 25.4116667,19.345 25.3673333,19.1233333 C25.2786667,18.813 25.057,18.4583333 24.924,18.1923333 C24.7023333,17.7933333 24.0816667,16.9953333 24.4363333,16.286 C24.6136667,15.887 24.9683333,15.754 25.323,15.7983333 Z M12.3333333,20.941 C12.3333333,22.803 16.412,24.3103333 21.5103333,24.3103333 C22.663,24.3103333 23.8156667,24.2216667 24.8353333,24.0886667 C24.6136667,25.2856667 24.7023333,26.527 25.1013333,27.458 L25.1013333,27.458 L25.1754531,27.6166302 C25.2565,27.7683333 25.35625,27.9013333 25.456,28.0343333 C24.259,28.2116667 22.929,28.3446667 21.5103333,28.3446667 C16.4563333,28.3446667 12.3333333,26.8373333 12.3333333,24.9753333 L12.3333333,24.9753333 Z M21.599,12.9166667 C26.653,12.9166667 30.7316667,14.4683333 30.7316667,16.3746667 L30.7316667,16.3746667 L30.7316667,17.7933333 C30.4213333,17.5273333 30.111,17.2613333 29.8006667,16.9953333 C29.3573333,16.685 28.8696667,16.5076667 28.4263333,16.3303333 L28.4263333,16.3303333 L28.249,16.2416667 L27.4066667,16.1086667 L27.4066667,16.1086667 L27.0076667,15.7096667 C26.5643333,15.355 25.722,14.69 24.924,14.6013333 C24.259,14.5126667 23.727,14.823 23.4166667,15.4436667 C22.9733333,16.3746667 23.5053333,17.3056667 23.8156667,17.8376667 C23.86,17.9263333 23.9043333,18.015 23.9486667,18.0593333 L23.9486667,18.0593333 L24.0816667,18.281 C24.1703333,18.5026667 24.3476667,18.7686667 24.392,18.9903333 C24.4363333,19.079 24.4363333,19.1676667 24.4363333,19.2563333 C24.4363333,19.3893333 24.4363333,19.478 24.4806667,19.611 C24.4806667,19.7883333 24.525,19.9213333 24.5693333,20.0986667 C24.658,20.542 24.791,20.9853333 24.924,21.4286667 L24.924,21.4286667 L24.9981198,21.660724 C25.0791667,21.8913958 25.1789167,22.1158333 25.2786667,22.3153333 C24.126,22.4926667 22.8403333,22.6256667 21.466,22.6256667 C16.412,22.6256667 12.3333333,21.074 12.3333333,19.1676667 L12.3333333,19.1676667 L12.3333333,16.3746667 C12.3333333,14.4683333 16.545,12.9166667 21.599,12.9166667 Z M27.717,17.882 C27.3623333,17.749 26.9633333,18.1036667 27.2736667,18.3696667 C27.5396667,18.68 27.6283333,19.1233333 27.7613333,19.5666667 C28.2933333,19.345 28.6036667,18.6356667 28.2046667,18.1923333 C28.0716667,18.0593333 27.983,17.882 27.8056667,17.882 L27.8056667,17.882 Z" id="形状结合" fill="url(#linearGradient-2)" fill-rule="nonzero"></path>
    </g>
</svg>