<?xml version="1.0" encoding="UTF-8"?>
<svg width="52px" height="52px" viewBox="0 0 52 52" version="1.1" xmlns="http://www.w3.org/2000/svg" xmlns:xlink="http://www.w3.org/1999/xlink">
    <title>icon/菱形/负载均衡-黄色-hover</title>
    <defs>
        <linearGradient x1="33.6399009%" y1="2.12754839%" x2="77.1864045%" y2="76.9523197%" id="linearGradient-1">
            <stop stop-color="#FFE437" offset="0%"></stop>
            <stop stop-color="#FF8900" offset="83.5303442%"></stop>
            <stop stop-color="#FFC900" offset="100%"></stop>
        </linearGradient>
        <linearGradient x1="35.5317346%" y1="37.7516704%" x2="50%" y2="92.0138889%" id="linearGradient-2">
            <stop stop-color="#FFFFFF" offset="0%"></stop>
            <stop stop-color="#FFF4C2" offset="100%"></stop>
        </linearGradient>
    </defs>
    <g id="icon/菱形/负载均衡-黄色-hover" stroke="none" stroke-width="1" fill="none" fill-rule="evenodd">
        <path d="M26.7353911,0.735391052 L51.2646089,25.2646089 C51.6707542,25.6707542 51.6707542,26.3292458 51.2646089,26.7353911 L26.7353911,51.2646089 C26.3292458,51.6707542 25.6707542,51.6707542 25.2646089,51.2646089 L0.735391052,26.7353911 C0.329245789,26.3292458 0.329245789,25.6707542 0.735391052,25.2646089 L25.2646089,0.735391052 C25.6707542,0.329245789 26.3292458,0.329245789 26.7353911,0.735391052 Z" id="多边形" fill="url(#linearGradient-1)" fill-rule="nonzero"></path>
        <path d="M34.2997313,28.5129322 C33.8107618,28.5129322 33.3457909,28.6147563 32.9168177,28.7884563 L28.3706018,20.5946093 C29.1745516,19.9072965 29.6980189,18.8935475 29.6980189,17.7435339 C29.6980189,15.6756058 28.0421224,14 25.99925,14 C23.9563777,14 22.3004812,15.6756058 22.3004812,17.7435339 C22.3004812,18.6958889 22.6619586,19.5539069 23.2409224,20.2157637 L18.5882132,28.6342227 C18.3017311,28.5623469 18.0062496,28.5129322 17.6987688,28.5129322 C15.6558965,28.5129322 14,30.188538 14,32.2564661 C14,34.3243942 15.6558965,36 17.6987688,36 C19.5271546,36 21.0345603,34.6553226 21.3345416,32.8913695 L30.6654584,32.8913695 C30.9654397,34.6553226 32.4728454,36 34.3012312,36 C36.3441035,36 38,34.3243942 38,32.2564661 C38,30.188538 36.3426036,28.5129322 34.2997313,28.5129322 Z M24.4378476,21.1261911 C24.9133179,21.3523006 25.439785,21.4870678 25.99925,21.4870678 C26.3727267,21.4870678 26.7252047,21.4136945 27.0656834,21.310373 L31.6763952,29.6195208 C31.2054247,30.1001906 30.8694457,30.7126327 30.7104556,31.3939559 L21.2880445,31.3939559 C21.088557,30.5389328 20.5965877,29.8037027 19.9276295,29.287095 L24.4378476,21.1261911 Z" id="形状" fill="url(#linearGradient-2)" fill-rule="nonzero"></path>
    </g>
</svg>