<?xml version="1.0" encoding="UTF-8"?>
<svg width="20px" height="20px" viewBox="0 0 20 20" version="1.1" xmlns="http://www.w3.org/2000/svg" xmlns:xlink="http://www.w3.org/1999/xlink">
    <title>icon/状态-镜像-蓝色</title>
    <g id="icon/状态-镜像-蓝色" stroke="none" stroke-width="1" fill="none" fill-rule="evenodd">
        <path d="M1.5,3 C1.5,2.6462677 1.85726314,2.40438878 2.18569534,2.53576165 L2.18569534,2.53576165 L7.18569534,4.53576165 C7.37552453,4.61169333 7.5,4.79554771 7.5,5 L7.5,5 L7.5,15 C7.5,15.2044523 7.37552453,15.3883067 7.18569534,15.4642383 L7.18569534,15.4642383 L2.18569534,17.4642383 C1.85726314,17.5956112 1.5,17.3537323 1.5,17 L1.5,17 Z M18.5,3 L18.5,17 C18.5,17.3537323 18.1427369,17.5956112 17.8143047,17.4642383 L12.8143047,15.4642383 C12.6244755,15.3883067 12.5,15.2044523 12.5,15 L12.5,5 C12.5,4.79554771 12.6244755,4.61169333 12.8143047,4.53576165 L17.8143047,2.53576165 C18.1427369,2.40438878 18.5,2.6462677 18.5,3 Z M10,14.5 C10.2761424,14.5 10.5,14.7238576 10.5,15 L10.5,15 L10.5,16 C10.5,16.2761424 10.2761424,16.5 10,16.5 C9.72385763,16.5 9.5,16.2761424 9.5,16 L9.5,16 L9.5,15 C9.5,14.7238576 9.72385763,14.5 10,14.5 Z M2.5,3.738 L2.5,16.261 L6.5,14.661 L6.5,5.338 L2.5,3.738 Z M17.5,3.738 L13.5,5.338 L13.5,14.661 L17.5,16.261 L17.5,3.738 Z M10,11.5 C10.2761424,11.5 10.5,11.7238576 10.5,12 L10.5,12 L10.5,13 C10.5,13.2761424 10.2761424,13.5 10,13.5 C9.72385763,13.5 9.5,13.2761424 9.5,13 L9.5,13 L9.5,12 C9.5,11.7238576 9.72385763,11.5 10,11.5 Z M10,8.5 C10.2761424,8.5 10.5,8.72385763 10.5,9 L10.5,9 L10.5,10 C10.5,10.2761424 10.2761424,10.5 10,10.5 C9.72385763,10.5 9.5,10.2761424 9.5,10 L9.5,10 L9.5,9 C9.5,8.72385763 9.72385763,8.5 10,8.5 Z M10,5.5 C10.2761424,5.5 10.5,5.72385763 10.5,6 L10.5,6 L10.5,7 C10.5,7.27614237 10.2761424,7.5 10,7.5 C9.72385763,7.5 9.5,7.27614237 9.5,7 L9.5,7 L9.5,6 C9.5,5.72385763 9.72385763,5.5 10,5.5 Z M10,2.5 C10.2761424,2.5 10.5,2.72385763 10.5,3 L10.5,3 L10.5,4 C10.5,4.27614237 10.2761424,4.5 10,4.5 C9.72385763,4.5 9.5,4.27614237 9.5,4 L9.5,4 L9.5,3 C9.5,2.72385763 9.72385763,2.5 10,2.5 Z" id="形状结合" fill="#00B8FF" fill-rule="nonzero"></path>
    </g>
</svg>