<?xml version="1.0" encoding="UTF-8"?>
<svg width="48px" height="48px" viewBox="0 0 48 48" version="1.1" xmlns="http://www.w3.org/2000/svg" xmlns:xlink="http://www.w3.org/1999/xlink">
    <!-- Generator: Sketch 64 (93537) - https://sketch.com -->
    <title>icon/加气泡/其他/Service-红色-normal</title>
    <desc>Created with Sketch.</desc>
    <defs>
        <linearGradient x1="23.4254906%" y1="7.42293777%" x2="80.1991547%" y2="88.6253031%" id="linearGradient-1">
            <stop stop-color="#FF6582" stop-opacity="0.8" offset="0%"></stop>
            <stop stop-color="#FF583A" stop-opacity="0" offset="19.8635755%"></stop>
            <stop stop-color="#7C3DFF" stop-opacity="0" offset="73.8351997%"></stop>
            <stop stop-color="#E116DF" stop-opacity="0.6" offset="100%"></stop>
        </linearGradient>
        <linearGradient x1="50%" y1="34.1494406%" x2="76.432313%" y2="84.6277238%" id="linearGradient-2">
            <stop stop-color="#FF573A" offset="0%"></stop>
            <stop stop-color="#BF23DD" offset="100%"></stop>
        </linearGradient>
    </defs>
    <g id="icon/加气泡/其他/Service-红色-normal" stroke="none" stroke-width="1" fill="none" fill-rule="evenodd">
        <circle id="椭圆形" fill="url(#linearGradient-1)" cx="24" cy="24" r="24"></circle>
        <path d="M15.3086138,24.4450721 C17.3292468,23.8998798 18.7842147,25.0822516 20.5779647,26.4213942 C22.3719952,27.7602564 23.9139022,28.2597356 24.7112179,28.3362981 C25.4323451,28.4055689 27.0811794,28.4275476 27.3887023,28.4311057 L27.4385817,28.4316506 C27.4385817,28.4316506 29.1866186,28.4316506 29.1302484,29.4656651 C29.0741587,30.4996795 27.5067308,30.5560497 27.5067308,30.5560497 C27.5067308,30.5560497 23.8827724,30.5798878 22.1111779,30.5338942 C20.4810529,30.4918381 18.9375686,29.7673381 18.7010439,29.6516873 L18.6697917,29.6361779 C18.6697917,29.6361779 18.9645433,30.0554487 20.1009215,30.885016 C21.2370192,31.7148638 22.4979167,31.7709535 22.4979167,31.7709535 L22.4979167,31.7709535 L27.2220753,31.7249599 C27.2220753,31.7249599 29.7604167,31.7846955 30.2220353,30.0826522 C30.7094551,28.2889022 29.2783253,27.6191907 28.7552885,27.4540064 C28.2322516,27.2902244 26.1001765,27.0191325 26.1001765,27.0191325 C26.1001765,27.0191325 28.4245416,25.4666058 29.5440928,25.1020225 C30.8389246,24.6796667 30.8064904,26.0383013 30.9035256,25.9547276 C32.6072516,24.5151843 34.0860577,25.2819311 34.1931891,25.9104167 C34.251242,26.2477965 34.2529247,26.3995192 34.264984,26.4300881 C34.278726,26.4609375 34.9924679,26.0467147 35.7165865,25.8133814 C36.6280449,25.5186298 37.7352564,25.990625 37.8597756,26.8919872 C37.9873798,27.8289663 36.6330929,28.6125401 36.6330929,28.6125401 C36.6330929,28.6125401 27.3600561,34.7798878 25.6667067,35.6997596 C24.0901401,36.556192 22.515032,35.8178882 22.3052743,35.7119798 L22.2816907,35.6997596 C22.2816907,35.6997596 17.0583333,32.905649 16.1143429,32.5088141 C15.1723157,32.1119792 14.3766827,32.6451122 14.3766827,32.6451122 L14.3766827,32.6451122 L12.5145032,33.8597356 L10,28.3654647 L10,26.6191106 C10,26.6191106 13.2882612,24.9905449 15.3086138,24.4450721 Z M29.8333333,20.5512952 L29.8333333,22.7462509 C29.8333333,23.7721541 27.2142857,24.5833333 24,24.5833333 C20.8802521,24.5833333 18.3212432,23.7966933 18.173412,22.8342162 L18.1666667,22.7462509 L18.1666667,20.5512952 C18.1666667,21.5771984 20.7857143,22.3645194 24,22.3883776 C27.2142857,22.3883776 29.8333333,21.5533401 29.8333333,20.5512952 Z M18.1666667,17.2827198 C18.1666667,18.308623 20.7857143,19.0959441 24,19.1198023 C27.1197479,19.1198023 29.6787568,18.3556378 29.826588,17.3944827 L29.8333333,17.3065781 L29.8333333,19.4776755 C29.8333333,20.5035787 27.2142857,21.314758 24,21.314758 C20.8802521,21.314758 18.3212432,20.528118 18.173412,19.5656409 L18.1666667,19.4776755 L18.1666667,17.2827198 Z M24,12.9166667 C27.1197479,12.9166667 29.6787568,13.6808312 29.826588,14.6638007 L29.8333333,14.7537491 L29.8333333,16.2091002 C29.8333333,17.2350034 27.2142857,18.0461827 24,18.0461827 C20.8802521,18.0461827 18.3212432,17.2595427 18.173412,16.2970655 L18.1666667,16.2091002 L18.1666667,14.7537491 C18.1666667,13.7278459 20.7857143,12.9166667 24,12.9166667 Z" id="形状结合" fill="url(#linearGradient-2)" fill-rule="nonzero"></path>
    </g>
</svg>