<?xml version="1.0" encoding="UTF-8"?>
<svg width="48px" height="48px" viewBox="0 0 48 48" version="1.1" xmlns="http://www.w3.org/2000/svg" xmlns:xlink="http://www.w3.org/1999/xlink">
    <!-- Generator: Sketch 64 (93537) - https://sketch.com -->
    <title>icon/加气泡/其他/Service-normal</title>
    <desc>Created with Sketch.</desc>
    <defs>
        <linearGradient x1="23.4254906%" y1="7.42293777%" x2="80.1991547%" y2="88.6253031%" id="linearGradient-1">
            <stop stop-color="#00F2FF" stop-opacity="0.5" offset="0%"></stop>
            <stop stop-color="#03C8FF" stop-opacity="0.0120322841" offset="19.8635755%"></stop>
            <stop stop-color="#7C3DFF" stop-opacity="0" offset="73.8351997%"></stop>
            <stop stop-color="#7636FF" stop-opacity="0.6" offset="100%"></stop>
        </linearGradient>
        <linearGradient x1="50%" y1="27.1129061%" x2="76.432313%" y2="100%" id="linearGradient-2">
            <stop stop-color="#00DBDE" offset="0%"></stop>
            <stop stop-color="#5B47FF" offset="100%"></stop>
        </linearGradient>
    </defs>
    <g id="icon/加气泡/其他/Service-normal" stroke="none" stroke-width="1" fill="none" fill-rule="evenodd">
        <circle id="椭圆形" fill="url(#linearGradient-1)" cx="24" cy="24" r="24"></circle>
        <g id="icon/应用/其他/Service-normal" transform="translate(10.000000, 10.000000)" fill="url(#linearGradient-2)" fill-rule="nonzero">
            <path d="M26.8333333,4.83347434 C26.8333333,3.13973491 25.4412429,1.79342922 23.7881356,1.79342922 C22.3960452,1.79342922 21.1779661,2.74887197 20.8299435,4.05174845 C18.8288136,2.5751551 16.4361582,1.79342922 13.9129944,1.79342922 C11.4768362,1.79342922 9.12768362,2.53172589 7.12655367,3.9214608 C6.73502825,2.66201354 5.56045198,1.75 4.21186441,1.75 C2.51525424,1.75 1.16666667,3.13973491 1.16666667,4.79004512 C1.16666667,6.26663847 2.25423729,7.52608573 3.64632768,7.78666103 C2.68926554,9.52382967 2.16723164,11.4781444 2.16723164,13.4758883 C2.16723164,18.7742527 5.73446328,23.4211788 10.8677966,24.8109137 C11.0853107,26.2875071 12.3468927,27.4166667 13.8694915,27.4166667 C15.3920904,27.4166667 16.6536723,26.3309363 16.8711864,24.8109137 C22.0045198,23.464608 25.5717514,18.8176819 25.5717514,13.5193175 C25.5717514,11.5215736 25.0497175,9.6106881 24.0926554,7.87351946 C25.6587571,7.65637338 26.8333333,6.3534969 26.8333333,4.83347434 Z M5.34293785,5.52834179 C5.21242938,5.65862944 5.12542373,5.78891709 5.03841808,5.87577552 C4.77740113,6.0929216 4.51638418,6.17978003 4.21186441,6.17978003 C3.47231638,6.17978003 2.90677966,5.57177101 2.90677966,4.87690355 C2.90677966,4.1820361 3.51581921,3.57402707 4.21186441,3.57402707 C4.9079096,3.57402707 5.51694915,4.1820361 5.51694915,4.87690355 C5.51694915,5.09404963 5.47344633,5.35462493 5.34293785,5.52834179 Z M14.7830508,18.9913988 C17.4367232,18.5571066 19.4378531,16.2553582 19.4378531,13.5193175 C19.4378531,12.5204456 19.1768362,11.5650028 18.6548023,10.6964185 L22.0045198,7.65637338 C23.2661017,9.3501128 23.9186441,11.391286 23.9186441,13.5193175 C23.9186441,17.9490976 20.960452,21.857727 16.6971751,23.1171743 C16.3491525,22.3354484 15.6531073,21.7274394 14.7830508,21.4668641 L14.7830508,18.9913988 L14.7830508,18.9913988 Z M17.5237288,9.3501128 C16.5231638,8.48152848 15.2180791,8.00380711 13.8694915,8.00380711 C12.6514124,8.00380711 11.520339,8.39467005 10.5632768,9.08953751 L6.9960452,6.26663847 C8.86666667,4.48604061 11.3028249,3.53059786 13.8694915,3.53059786 C16.479661,3.53059786 18.9158192,4.52946983 20.8299435,6.3534969 L17.5237288,9.3501128 Z M13.9129944,9.74097575 C16.0011299,9.74097575 17.6977401,11.4347152 17.6977401,13.5193175 C17.6977401,15.6039199 16.0011299,17.2976593 13.9129944,17.2976593 C11.8248588,17.2976593 10.1282486,15.6039199 10.1282486,13.5193175 C10.1282486,11.4347152 11.8248588,9.74097575 13.9129944,9.74097575 Z M8.38813559,13.5193175 C8.38813559,16.2553582 10.3892655,18.5571066 13.0429379,18.9913988 L13.0429379,21.4668641 C12.2163842,21.7274394 11.520339,22.3354484 11.1288136,23.1171743 C6.86553672,21.9011562 3.90734463,17.9925268 3.90734463,13.5193175 C3.90734463,11.3478567 4.60338983,9.30668359 5.86497175,7.56951495 L9.34519774,10.3489848 C8.73615819,11.3044275 8.38813559,12.3901579 8.38813559,13.5193175 Z M15.2180791,24.3766215 C15.2180791,25.1149182 14.6090395,25.679498 13.9129944,25.679498 C13.2169492,25.679498 12.6079096,25.071489 12.6079096,24.3766215 C12.6079096,23.6817541 13.2169492,23.0737451 13.9129944,23.0737451 C14.6090395,23.0737451 15.2180791,23.6383249 15.2180791,24.3766215 Z M22.439548,4.83347434 C22.439548,4.09517766 23.0485876,3.53059786 23.7446328,3.53059786 C24.440678,3.53059786 25.0497175,4.13860688 25.0497175,4.83347434 C25.0497175,5.57177101 24.440678,6.13635082 23.7446328,6.13635082 C23.0485876,6.13635082 22.439548,5.57177101 22.439548,4.83347434 Z" id="形状"></path>
        </g>
    </g>
</svg>