<?xml version="1.0" encoding="UTF-8"?>
<svg width="52px" height="52px" viewBox="0 0 52 52" version="1.1" xmlns="http://www.w3.org/2000/svg" xmlns:xlink="http://www.w3.org/1999/xlink">
    <!-- Generator: Sketch 64 (93537) - https://sketch.com -->
    <title>icon/菱形/Swich-黄色-normal</title>
    <desc>Created with Sketch.</desc>
    <defs>
        <linearGradient x1="21.4833383%" y1="14.6855096%" x2="80.6880374%" y2="83.679043%" id="linearGradient-1">
            <stop stop-color="#FFDF11" stop-opacity="0.6" offset="0%"></stop>
            <stop stop-color="#AEFF03" stop-opacity="0.0120322841" offset="19.8635755%"></stop>
            <stop stop-color="#FFCB58" stop-opacity="0" offset="73.8351997%"></stop>
            <stop stop-color="#FFA323" stop-opacity="0.5" offset="100%"></stop>
        </linearGradient>
        <linearGradient x1="18.5043223%" y1="14.5497626%" x2="94.8114894%" y2="70.2834636%" id="linearGradient-2">
            <stop stop-color="#FFDF11" stop-opacity="0.6" offset="0%"></stop>
            <stop stop-color="#AEFF03" stop-opacity="0.0120322841" offset="19.8635755%"></stop>
            <stop stop-color="#FFCB58" stop-opacity="0" offset="73.8351997%"></stop>
            <stop stop-color="#FFA323" stop-opacity="0.5" offset="100%"></stop>
        </linearGradient>
        <linearGradient x1="50%" y1="21.6277967%" x2="76.432313%" y2="95.3514739%" id="linearGradient-3">
            <stop stop-color="#FFE437" offset="0%"></stop>
            <stop stop-color="#F0912C" offset="100%"></stop>
        </linearGradient>
    </defs>
    <g id="icon/菱形/Swich-黄色-normal" stroke="none" stroke-width="1" fill="none" fill-rule="evenodd">
        <path d="M26.7353911,0.735391052 L51.2646089,25.2646089 C51.6707542,25.6707542 51.6707542,26.3292458 51.2646089,26.7353911 L26.7353911,51.2646089 C26.3292458,51.6707542 25.6707542,51.6707542 25.2646089,51.2646089 L0.735391052,26.7353911 C0.329245789,26.3292458 0.329245789,25.6707542 0.735391052,25.2646089 L25.2646089,0.735391052 C25.6707542,0.329245789 26.3292458,0.329245789 26.7353911,0.735391052 Z" id="多边形" fill="url(#linearGradient-1)"></path>
        <path d="M26.7353911,0.735391052 L51.2646089,25.2646089 C51.6707542,25.6707542 51.6707542,26.3292458 51.2646089,26.7353911 L26.7353911,51.2646089 C26.3292458,51.6707542 25.6707542,51.6707542 25.2646089,51.2646089 L0.735391052,26.7353911 C0.329245789,26.3292458 0.329245789,25.6707542 0.735391052,25.2646089 L25.2646089,0.735391052 C25.6707542,0.329245789 26.3292458,0.329245789 26.7353911,0.735391052 Z" id="多边形" fill="url(#linearGradient-2)" transform="translate(26.000000, 26.000000) rotate(-270.000000) translate(-26.000000, -26.000000) "></path>
        <path d="M36.1659816,23.5582419 L36.1659816,16.3241041 C36.1659816,15.6848671 35.6467076,15.1666667 35.0061462,15.1666667 L26.8871445,15.1666667 C26.2465318,15.1666667 25.7272578,15.6848671 25.7272578,16.3241041 L25.7272578,23.5581906 C25.7272578,24.1974276 26.2465318,24.7156281 26.8871445,24.7156281 L35.0060949,24.7156281 C35.6466562,24.7156281 36.1659816,24.1974789 36.1659816,23.5582419 Z M33.8462081,21.8220345 C33.8462081,22.141653 33.5865711,22.4008045 33.2662904,22.4008045 L28.6268976,22.4008045 C28.3066169,22.4008045 28.0469285,22.1417043 28.0469285,21.8220345 L28.0469285,18.0602603 C28.0469285,17.7406418 28.3066169,17.4815415 28.6268976,17.4815415 L33.2662904,17.4815415 C33.5865711,17.4815415 33.8462081,17.7406418 33.8462081,18.0602603 L33.8462081,21.8220345 Z M24.5425482,27.2843206 L16.4235466,27.2843206 C15.7829852,27.2843206 15.2637112,27.8025211 15.2637112,28.4417581 L15.2637112,35.6758959 C15.2637112,36.3151329 15.7829852,36.833282 16.4235466,36.833282 L24.5425482,36.833282 C25.1831096,36.833282 25.7023836,36.3150816 25.7023836,35.6758959 L25.7023836,28.4417581 C25.7023836,27.8025211 25.1831096,27.2843206 24.5425482,27.2843206 Z M17.7922941,25.1831573 L20.9595882,21.4894405 L19.1018884,21.4894405 C19.1171007,19.4069968 20.7465132,17.7236659 22.7550512,17.7236659 L23.0984842,17.7236659 C23.3846328,17.7236659 23.6166021,17.4916966 23.6166021,17.205548 L23.6166021,15.7016066 C23.6166021,15.415458 23.3846328,15.1834887 23.0984842,15.1834887 L22.7550512,15.1834887 L22.7550512,15.1834887 C19.4174924,15.1834887 16.7118608,17.9936389 16.7118608,21.4601558 C16.7118608,21.4699515 16.7120664,21.479696 16.7122206,21.4894405 L14.625,21.4894405 L17.7922941,25.1831573 Z M34.2077059,26.8336647 L31.0403604,30.5274328 L32.8981116,30.5274328 C32.8828479,32.6098253 31.2534354,34.2932074 29.2448974,34.2932074 L28.9014644,34.2932074 C28.6153158,34.2932074 28.3833465,34.5251767 28.3833465,34.8113253 L28.3833465,36.3152155 C28.3833465,36.6013641 28.6153158,36.8333333 28.9014644,36.8333333 L29.2448974,36.8333333 L29.2448974,36.8333333 C32.5824563,36.8333333 35.2881392,34.0231831 35.2881392,30.5566662 C35.2881392,30.5468705 35.2879336,30.537126 35.2877281,30.5274328 L37.375,30.5274328 L34.2077059,26.8336647 Z" id="形状" fill="url(#linearGradient-3)" fill-rule="nonzero"></path>
    </g>
</svg>