<?xml version="1.0" encoding="UTF-8"?>
<svg width="52px" height="52px" viewBox="0 0 52 52" version="1.1" xmlns="http://www.w3.org/2000/svg" xmlns:xlink="http://www.w3.org/1999/xlink">
    <!-- Generator: Sketch 64 (93537) - https://sketch.com -->
    <title>icon/菱形/Swich-黄色-hover</title>
    <desc>Created with Sketch.</desc>
    <defs>
        <linearGradient x1="33.6399009%" y1="2.12754839%" x2="77.1864045%" y2="76.9523197%" id="linearGradient-1">
            <stop stop-color="#FFE437" offset="0%"></stop>
            <stop stop-color="#FF8900" offset="83.5303442%"></stop>
            <stop stop-color="#FFC900" offset="100%"></stop>
        </linearGradient>
        <linearGradient x1="35.5317346%" y1="36.7184973%" x2="50%" y2="95.5578512%" id="linearGradient-2">
            <stop stop-color="#FFFFFF" offset="0%"></stop>
            <stop stop-color="#FFF4C2" offset="100%"></stop>
        </linearGradient>
    </defs>
    <g id="icon/菱形/Swich-黄色-hover" stroke="none" stroke-width="1" fill="none" fill-rule="evenodd">
        <path d="M26.7353911,0.735391052 L51.2646089,25.2646089 C51.6707542,25.6707542 51.6707542,26.3292458 51.2646089,26.7353911 L26.7353911,51.2646089 C26.3292458,51.6707542 25.6707542,51.6707542 25.2646089,51.2646089 L0.735391052,26.7353911 C0.329245789,26.3292458 0.329245789,25.6707542 0.735391052,25.2646089 L25.2646089,0.735391052 C25.6707542,0.329245789 26.3292458,0.329245789 26.7353911,0.735391052 Z" id="多边形" fill="url(#linearGradient-1)" fill-rule="nonzero"></path>
        <path d="M35.8308394,24.1333729 L35.8308394,17.121824 C35.8308394,16.5022558 35.3286843,16 34.7092403,16 L26.857898,16 C26.2384044,16 25.7362493,16.5022558 25.7362493,17.121824 L25.7362493,24.1333232 C25.7362493,24.7528914 26.2384044,25.2551472 26.857898,25.2551472 L34.7091906,25.2551472 C35.3286346,25.2551472 35.8308394,24.7529411 35.8308394,24.1333729 Z M33.5875419,22.4505873 C33.5875419,22.7603714 33.3364644,23.011549 33.0267424,23.011549 L28.5402966,23.011549 C28.2305746,23.011549 27.9794474,22.7604211 27.9794474,22.4505873 L27.9794474,18.8045599 C27.9794474,18.4947759 28.2305746,18.243648 28.5402966,18.243648 L33.0267424,18.243648 C33.3364644,18.243648 33.5875419,18.4947759 33.5875419,18.8045599 L33.5875419,22.4505873 Z M24.5905961,27.7448031 L16.7392538,27.7448031 C16.1198099,27.7448031 15.6176548,28.2470589 15.6176548,28.8666271 L15.6176548,35.878176 C15.6176548,36.4977442 16.1198099,36.9999503 16.7392538,36.9999503 L24.5905961,36.9999503 C25.21004,36.9999503 25.7121952,36.4976945 25.7121952,35.878176 L25.7121952,28.8666271 C25.7121952,28.2470589 25.21004,27.7448031 24.5905961,27.7448031 Z M18.0628778,25.7082909 L21.1257556,22.1282269 L19.3292987,22.1282269 C19.3440095,20.1098584 20.9197051,18.4783223 22.8620275,18.4783223 L23.1941386,18.4783223 C23.4708537,18.4783223 23.6951756,18.2540004 23.6951756,17.9772852 L23.6951756,16.5173415 C23.6951756,16.2406264 23.4708537,16.0163044 23.1941386,16.0163044 L22.8620275,16.0163044 L22.8620275,16.0163044 C19.6344981,16.0163044 17.0180632,18.7399885 17.0180632,22.0998433 C17.0180632,22.1093376 17.018262,22.1187823 17.0184111,22.1282269 L15,22.1282269 L18.0628778,25.7082909 Z M33.9371222,27.3080135 L30.8741947,30.8881272 L32.6707013,30.8881272 C32.6559408,32.906446 31.0802452,34.5380318 29.1379228,34.5380318 L28.8058117,34.5380318 C28.5290966,34.5380318 28.3047747,34.7623538 28.3047747,35.0390689 L28.3047747,36.4989629 C28.3047747,36.7756781 28.5290966,37 28.8058117,37 L29.1379228,37 L29.1379228,37 C32.3654522,37 34.9819368,34.276316 34.9819368,30.9164611 C34.9819368,30.9069668 34.981738,30.8975221 34.9815392,30.8881272 L37,30.8881272 L33.9371222,27.3080135 Z" id="形状" fill="url(#linearGradient-2)" fill-rule="nonzero"></path>
    </g>
</svg>