<?xml version="1.0" encoding="UTF-8"?>
<svg width="48px" height="48px" viewBox="0 0 48 48" version="1.1" xmlns="http://www.w3.org/2000/svg" xmlns:xlink="http://www.w3.org/1999/xlink">
    <!-- Generator: Sketch 64 (93537) - https://sketch.com -->
    <title>icon/加气泡/远程调用/UNKNOWN-hover</title>
    <desc>Created with Sketch.</desc>
    <defs>
        <linearGradient x1="34.5794565%" y1="0%" x2="78.1946822%" y2="93.536429%" id="linearGradient-1">
            <stop stop-color="#00DBDE" offset="0%"></stop>
            <stop stop-color="#4D1CFD" offset="84.9377429%"></stop>
            <stop stop-color="#BA72FF" stop-opacity="0.723120629" offset="100%"></stop>
        </linearGradient>
        <linearGradient x1="21.5221588%" y1="44.1641173%" x2="46.4479808%" y2="70.1676843%" id="linearGradient-2">
            <stop stop-color="#F4FAFF" offset="0%"></stop>
            <stop stop-color="#CEEBFF" offset="100%"></stop>
        </linearGradient>
    </defs>
    <g id="icon/加气泡/远程调用/UNKNOWN-hover" stroke="none" stroke-width="1" fill="none" fill-rule="evenodd">
        <circle id="椭圆形" fill="url(#linearGradient-1)" fill-rule="nonzero" cx="24" cy="24" r="23"></circle>
        <g id="icon/应用/远程调用/UNKNOWN-hover" transform="translate(10.000000, 10.000000)" fill="url(#linearGradient-2)" fill-rule="nonzero">
            <path d="M17.952394,5.25 C22.1192187,5.25 25.5071976,8.62719298 25.5071976,12.7335526 C25.5071976,12.9254386 25.5071976,13.1557018 25.4682553,13.3475877 C27.0259467,14.2302632 27.9995039,15.571516 27.9995039,18.2675439 C27.9995039,21.1075675 25.8050035,23.0325219 23.0011589,23.0325219 L4.81511115,23.0325219 C2.0891511,23.0325219 -4.97379915e-14,20.6469298 -4.97379915e-14,18.3059211 C-4.97379915e-14,15.1666667 1.43713804,13.6499506 3.58269035,12.8486842 C4.12788236,10.2390351 6.42547725,8.35855263 9.1514373,8.35855263 C9.96922531,8.35855263 10.748071,8.5120614 11.4879745,8.85745614 C12.8509545,6.63157895 15.2653763,5.25 17.952394,5.25 Z M6.56429107,14.5833333 C6.48602647,14.5833333 6.42353161,14.6118715 6.37680648,14.6689479 C6.34176263,14.7117552 6.31986023,14.7713366 6.31109926,14.8476923 L6.30671878,14.9296394 L6.30671878,16.3283311 C6.30671878,16.5694628 6.26466616,16.7493495 6.18056093,16.8679914 C6.09645569,16.9866333 5.95277591,17.0459543 5.74952159,17.0459543 C5.60233742,17.0459543 5.48786085,17.0167748 5.40609187,16.9584158 C5.32432289,16.9000568 5.26737664,16.8179694 5.23525311,16.7121537 C5.21383743,16.6416099 5.1995603,16.5595225 5.19242174,16.4658916 L5.18706782,16.3167876 L5.18706782,14.9296394 C5.18706782,14.814204 5.16341322,14.7276275 5.11610403,14.6699099 C5.06879483,14.6121922 5.00483981,14.5833333 4.92423895,14.5833333 C4.84714249,14.5833333 4.78493966,14.6121922 4.73763046,14.6699099 C4.70214856,14.7131981 4.67997238,14.7727195 4.6711019,14.8484739 L4.66666667,14.9296394 L4.66666667,16.2860048 C4.66666667,16.4989189 4.68769298,16.6820122 4.72974559,16.8352847 C4.77179821,16.9885572 4.83779746,17.1142535 4.92774334,17.2123736 C5.01768922,17.3104936 5.13391798,17.3829614 5.27642963,17.4297768 C5.41894128,17.4765923 5.58890395,17.5 5.78631763,17.5 C5.95219185,17.5 6.09703975,17.4781955 6.22086135,17.4345866 C6.34468295,17.3909777 6.45331888,17.3217165 6.54676914,17.226803 C6.65540508,17.1152155 6.72928919,16.9856714 6.76842149,16.8381706 C6.79777071,16.7275451 6.81611398,16.5963576 6.82345128,16.4446082 L6.82711993,16.2860048 L6.82711993,14.9296394 C6.82711993,14.8129214 6.80288127,14.7260243 6.75440395,14.6689479 C6.70592662,14.6118715 6.64255566,14.5833333 6.56429107,14.5833333 Z M9.20902696,14.5833333 C9.13660301,14.5833333 9.07907269,14.6105889 9.03643601,14.6651 C9.0044585,14.7059834 8.98447255,14.762198 8.97647817,14.8337439 L8.97248098,14.9104002 L8.97248098,16.5880607 L7.97197911,14.9257916 C7.94394403,14.8770522 7.91678504,14.8302367 7.89050216,14.7853452 C7.86421927,14.7404537 7.83852045,14.7038991 7.81340569,14.6756816 C7.78829093,14.6474641 7.75908773,14.6250183 7.72579607,14.6083443 C7.69250441,14.5916703 7.65249602,14.5833333 7.60577089,14.5833333 C7.54619634,14.5833333 7.49071025,14.6016106 7.43931261,14.6381651 C7.38791496,14.6747197 7.35111892,14.7218558 7.32892448,14.7795734 C7.31646445,14.8146316 7.30815776,14.8585255 7.30400441,14.9112553 L7.3008894,14.9969767 L7.3008894,17.1729332 C7.3008894,17.2793902 7.32308384,17.3605156 7.36747272,17.4163094 C7.41186159,17.4721031 7.47085207,17.5 7.54444415,17.5 C7.61569998,17.5 7.67410639,17.4724238 7.7196634,17.4172713 C7.75383115,17.375907 7.77518599,17.3197525 7.78372793,17.2488079 L7.7879989,17.1729332 L7.7879989,15.5202836 L8.76397008,17.1633135 C8.79200516,17.2082051 8.82004024,17.2521346 8.84807532,17.2951022 C8.8761104,17.3380698 8.90648174,17.3755863 8.93918933,17.4076517 C8.97189692,17.4397171 9.00694077,17.4631248 9.04432087,17.4778749 C9.08170098,17.492625 9.1237536,17.5 9.17047873,17.5 C9.33401669,17.5 9.42600679,17.4052368 9.44644904,17.2157104 L9.45082952,17.1286829 L9.45082952,14.9104002 C9.45082952,14.8013779 9.42921914,14.7196112 9.3859984,14.6651 C9.34277765,14.6105889 9.28378717,14.5833333 9.20902696,14.5833333 Z M11.7328616,14.5833333 C11.6756233,14.5833333 11.6297743,14.5968008 11.5953145,14.6237357 C11.5723413,14.6416923 11.5461233,14.6662045 11.5166605,14.6972723 L11.4700327,14.7487907 L10.4485045,15.9185356 L10.4485045,14.9296394 C10.4485045,14.8129214 10.4242659,14.7260243 10.3757885,14.6689479 C10.3273112,14.6118715 10.2639403,14.5833333 10.1856757,14.5833333 C10.1062429,14.5833333 10.043456,14.6121922 9.99731497,14.6699099 C9.96270917,14.7131981 9.94108055,14.7727195 9.9324291,14.8484739 L9.92810337,14.9296394 L9.92843191,17.0900842 C9.92908898,17.1494854 9.93073166,17.1969822 9.93335995,17.2325748 C9.93686433,17.2800315 9.94679343,17.3217165 9.96314722,17.3576297 C9.98534166,17.4012386 10.0168811,17.4358692 10.0577656,17.4615215 C10.0986501,17.4871738 10.1412868,17.5 10.1856757,17.5 C10.2627721,17.5 10.3258511,17.4714618 10.3749124,17.4143854 C10.4117085,17.3715782 10.434706,17.311636 10.443905,17.2345588 L10.4485045,17.15177 L10.4485045,16.5688215 L10.8742873,16.1205475 L11.4893068,17.1594657 C11.5138375,17.2056398 11.5418726,17.2569444 11.5734121,17.3133795 C11.6049515,17.3698146 11.6434998,17.4150268 11.6890568,17.4490161 C11.7346138,17.4830054 11.7936042,17.5 11.8660282,17.5 C11.9431247,17.5 12.0041594,17.4769129 12.0491323,17.4307388 C12.0941052,17.3845646 12.1165917,17.3300535 12.1165917,17.2672054 C12.1165917,17.2107703 12.1037423,17.152732 12.0780435,17.0930904 C12.0609109,17.0533293 12.0380675,17.0091503 12.0095133,16.9605535 L11.9623988,16.8843448 L11.2334867,15.7376869 L11.8660282,15.0797054 C11.9442928,14.997618 11.9834251,14.9148893 11.9834251,14.8315193 C11.9834251,14.7622581 11.9603546,14.7035785 11.9142135,14.6554804 C11.8680724,14.6073824 11.8076218,14.5833333 11.7328616,14.5833333 Z M14.400376,14.5833333 C14.327952,14.5833333 14.2704217,14.6105889 14.227785,14.6651 C14.1958075,14.7059834 14.1758216,14.762198 14.1678272,14.8337439 L14.16383,14.9104002 L14.16383,16.5880607 L13.1633281,14.9257916 C13.135293,14.8770522 13.1081341,14.8302367 13.0818512,14.7853452 C13.0555683,14.7404537 13.0298695,14.7038991 13.0047547,14.6756816 C12.9796399,14.6474641 12.9504367,14.6250183 12.9171451,14.6083443 C12.8838534,14.5916703 12.843845,14.5833333 12.7971199,14.5833333 C12.7375454,14.5833333 12.6820593,14.6016106 12.6306616,14.6381651 C12.579264,14.6747197 12.5424679,14.7218558 12.5202735,14.7795734 C12.5078135,14.8146316 12.4995068,14.8585255 12.4953534,14.9112553 L12.4922384,14.9969767 L12.4922384,17.1729332 C12.4922384,17.2793902 12.5144329,17.3605156 12.5588217,17.4163094 C12.6032106,17.4721031 12.6622011,17.5 12.7357932,17.5 C12.807049,17.5 12.8654554,17.4724238 12.9110124,17.4172713 C12.9451802,17.375907 12.966535,17.3197525 12.9750769,17.2488079 L12.9793479,17.1729332 L12.9793479,15.5202836 L13.9553191,17.1633135 L14.0394243,17.2951022 L14.0394243,17.2951022 C14.0674594,17.3380698 14.0978307,17.3755863 14.1305383,17.4076517 C14.1632459,17.4397171 14.1982898,17.4631248 14.2356699,17.4778749 C14.27305,17.492625 14.3151026,17.5 14.3618277,17.5 C14.5253657,17.5 14.6173558,17.4052368 14.637798,17.2157104 L14.6421785,17.1286829 L14.6421785,14.9104002 C14.6421785,14.8013779 14.6205682,14.7196112 14.5773474,14.6651 C14.5341267,14.6105889 14.4751362,14.5833333 14.400376,14.5833333 Z M16.2461121,14.5833333 C16.0498666,14.5833333 15.8746473,14.617002 15.7204544,14.6843393 C15.5662615,14.7516766 15.4354311,14.8488347 15.3279633,14.9758135 C15.2204955,15.1027924 15.1384345,15.2567062 15.0817802,15.437555 C15.025126,15.6184037 14.9967989,15.817209 14.9967989,16.033971 C14.9967989,16.2456025 15.0239579,16.4424839 15.0782759,16.6246152 C15.1325938,16.8067466 15.2129026,16.9625843 15.3192023,17.0921284 C15.425502,17.2216725 15.5580846,17.3220372 15.71695,17.3932223 C15.8758154,17.4644074 16.0557072,17.5 16.2566253,17.5 C16.4587115,17.5 16.6380192,17.4653694 16.7945483,17.3961082 C16.9510775,17.326847 17.083076,17.226803 17.1905438,17.0959763 C17.2980116,16.9651495 17.3786125,16.8105944 17.4323464,16.6323109 C17.4860803,16.4540274 17.5129472,16.2558634 17.5129472,16.0378188 C17.5129472,15.7428174 17.4638859,15.4859737 17.3657631,15.2672878 C17.2676403,15.0486019 17.1230844,14.8799381 16.9320955,14.7612962 C16.7411065,14.6426543 16.5124454,14.5833333 16.2461121,14.5833333 Z M20.6833409,14.5833333 C20.6155894,14.5833333 20.5638997,14.6025726 20.5282718,14.641051 C20.4926439,14.6795295 20.4675292,14.7231384 20.4529276,14.7718777 C20.4431932,14.8043707 20.4330694,14.8451293 20.4225562,14.8941537 L20.4064945,14.9738896 L20.0700735,16.6207674 L19.6898478,15.0797054 C19.6583083,14.9527265 19.6331935,14.8616608 19.6145035,14.8065084 C19.5958134,14.7513559 19.5622297,14.700372 19.5137524,14.6535565 C19.4652751,14.6067411 19.3972316,14.5833333 19.309622,14.5833333 C19.2231805,14.5833333 19.154845,14.6057791 19.1046155,14.6506706 C19.054386,14.6955622 19.018174,14.7487907 18.9959796,14.8103562 C18.9811833,14.8513999 18.965089,14.9049847 18.9476969,14.9711106 L18.9206353,15.0797054 L18.5439139,16.6207674 L18.207493,14.9738896 C18.1829623,14.8469107 18.1543431,14.7500733 18.1216355,14.6833773 C18.0889279,14.6166813 18.0252649,14.5833333 17.9306466,14.5833333 C17.861727,14.5833333 17.8039046,14.6083443 17.7571795,14.6583663 C17.7104544,14.7083883 17.6870918,14.7699538 17.6870918,14.8430629 C17.6870918,14.8815413 17.6928027,14.9317058 17.7042244,14.9935564 L17.72564,15.0950967 L18.153175,16.9940084 C18.1660244,17.0504434 18.180626,17.1116883 18.1969798,17.177743 C18.2133336,17.2437976 18.2343599,17.300874 18.2600587,17.3489721 C18.2857576,17.3970701 18.3193412,17.434266 18.3608098,17.4605596 C18.4022784,17.4868532 18.4551362,17.5 18.5193832,17.5 C18.5988159,17.5 18.6624789,17.4778749 18.7103722,17.4336247 C18.7582654,17.3893745 18.7918491,17.3393525 18.8111233,17.2835587 C18.8255788,17.2417134 18.8438126,17.1794865 18.8658245,17.0968781 L18.8890958,17.0074758 L19.309622,15.3163478 L19.7248916,17.0074758 C19.7587673,17.1395852 19.7850502,17.2328954 19.8037403,17.2874066 C19.8224303,17.3419177 19.855722,17.3909777 19.9036152,17.4345866 C19.9515085,17.4781955 20.0151715,17.5 20.0946042,17.5 C20.1787094,17.5 20.2438326,17.4775542 20.2899737,17.4326627 C20.3361147,17.3877712 20.3688223,17.3355046 20.3880964,17.275863 C20.402552,17.2311318 20.4198002,17.1671013 20.4398409,17.0837714 L20.4608124,16.9940084 L20.8883474,15.0950967 C20.9140462,14.9796614 20.9268956,14.8956501 20.9268956,14.8430629 C20.9268956,14.7686712 20.903241,14.706785 20.8559318,14.6574044 C20.8086226,14.6080237 20.7510923,14.5833333 20.6833409,14.5833333 Z M23.0915308,14.5833333 C23.0191068,14.5833333 22.9615765,14.6105889 22.9189398,14.6651 C22.8869623,14.7059834 22.8669764,14.762198 22.858982,14.8337439 L22.8549848,14.9104002 L22.8549848,16.5880607 L21.8544829,14.9257916 C21.8264478,14.8770522 21.7992889,14.8302367 21.773006,14.7853452 C21.7467231,14.7404537 21.7210243,14.7038991 21.6959095,14.6756816 C21.6707947,14.6474641 21.6415915,14.6250183 21.6082999,14.6083443 C21.5750082,14.5916703 21.5349998,14.5833333 21.4882747,14.5833333 C21.4287002,14.5833333 21.3732141,14.6016106 21.3218164,14.6381651 C21.2704188,14.6747197 21.2336227,14.7218558 21.2114283,14.7795734 C21.1989683,14.8146316 21.1906616,14.8585255 21.1865082,14.9112553 L21.1833932,14.9969767 L21.1833932,17.1729332 C21.1833932,17.2793902 21.2055877,17.3605156 21.2499765,17.4163094 C21.2943654,17.4721031 21.3533559,17.5 21.426948,17.5 C21.4982038,17.5 21.5566102,17.4724238 21.6021672,17.4172713 C21.636335,17.375907 21.6576898,17.3197525 21.6662317,17.2488079 L21.6705027,17.1729332 L21.6705027,15.5202836 L22.6464739,17.1633135 L22.7305791,17.2951022 L22.7305791,17.2951022 C22.7586142,17.3380698 22.7889856,17.3755863 22.8216931,17.4076517 C22.8544007,17.4397171 22.8894446,17.4631248 22.9268247,17.4778749 C22.9642048,17.492625 23.0062574,17.5 23.0529825,17.5 C23.2165205,17.5 23.3085106,17.4052368 23.3289529,17.2157104 L23.3333333,17.1286829 L23.3333333,14.9104002 C23.3333333,14.8013779 23.311723,14.7196112 23.2685022,14.6651 C23.2252815,14.6105889 23.166291,14.5833333 23.0915308,14.5833333 Z M16.2461121,15.0373791 C16.3921282,15.0373791 16.5214984,15.0761782 16.6342227,15.1537764 C16.7469471,15.2313746 16.8336806,15.345848 16.8944233,15.4971966 C16.955166,15.6485451 16.9855373,15.82747 16.9855373,16.033971 C16.9855373,16.257146 16.9525377,16.4450491 16.8865384,16.5976803 C16.8205392,16.7503115 16.7317614,16.8631816 16.6202052,16.9362907 C16.5086489,17.0093997 16.3862875,17.0459543 16.2531209,17.0459543 C16.1491575,17.0459543 16.053663,17.0247911 15.9666374,16.9824648 C15.8796119,16.9401385 15.8025154,16.8763284 15.735348,16.7910345 C15.6681806,16.7057406 15.6161989,16.5983216 15.5794029,16.4687775 C15.5426069,16.3392334 15.5242088,16.1942979 15.5242088,16.033971 C15.5242088,15.8749267 15.5426069,15.7315945 15.5794029,15.6039743 C15.6161989,15.4763541 15.6664285,15.3715003 15.7300914,15.2894129 C15.7937544,15.2073256 15.8696828,15.1447981 15.9578765,15.1018305 C16.0460701,15.0588629 16.1421487,15.0373791 16.2461121,15.0373791 Z" id="形状结合"></path>
        </g>
    </g>
</svg>