<?xml version="1.0" encoding="UTF-8"?>
<svg width="48px" height="48px" viewBox="0 0 48 48" version="1.1" xmlns="http://www.w3.org/2000/svg" xmlns:xlink="http://www.w3.org/1999/xlink">
    <!-- Generator: Sketch 64 (93537) - https://sketch.com -->
    <title>icon/加气泡/远程调用/UNKNOWN-normal</title>
    <desc>Created with Sketch.</desc>
    <defs>
        <linearGradient x1="23.4254906%" y1="7.42293777%" x2="80.1991547%" y2="88.6253031%" id="linearGradient-1">
            <stop stop-color="#00F2FF" stop-opacity="0.5" offset="0%"></stop>
            <stop stop-color="#03C8FF" stop-opacity="0.0120322841" offset="19.8635755%"></stop>
            <stop stop-color="#7C3DFF" stop-opacity="0" offset="73.8351997%"></stop>
            <stop stop-color="#7636FF" stop-opacity="0.6" offset="100%"></stop>
        </linearGradient>
        <linearGradient x1="50%" y1="40.7684063%" x2="76.432313%" y2="70.1676843%" id="linearGradient-2">
            <stop stop-color="#00DBDE" offset="0%"></stop>
            <stop stop-color="#5B47FF" offset="100%"></stop>
        </linearGradient>
    </defs>
    <g id="icon/加气泡/远程调用/UNKNOWN-normal" stroke="none" stroke-width="1" fill="none" fill-rule="evenodd">
        <circle id="椭圆形" fill="url(#linearGradient-1)" cx="24" cy="24" r="24"></circle>
        <g id="icon/应用/远程调用/UNKNOWN-normal" transform="translate(10.000000, 10.000000)" fill="url(#linearGradient-2)" fill-rule="nonzero">
            <path d="M17.952394,4.66666667 C22.1192187,4.66666667 25.5071976,8.04385965 25.5071976,12.1502193 C25.5071976,12.3421053 25.5071976,12.5723684 25.4682553,12.7642544 C27.0259467,13.6469298 27.9995039,14.9881826 27.9995039,17.6842105 C27.9995039,20.5242342 25.8050035,22.4491885 23.0011589,22.4491885 L4.81511115,22.4491885 C2.0891511,22.4491885 -1.24344979e-13,20.0635965 -1.24344979e-13,17.7225877 C-1.24344979e-13,14.5833333 1.43713804,13.0666173 3.58269035,12.2653509 C4.12788236,9.65570175 6.42547725,7.7752193 9.1514373,7.7752193 C9.96922531,7.7752193 10.748071,7.92872807 11.4879745,8.27412281 C12.8509545,6.04824561 15.2653763,4.66666667 17.952394,4.66666667 Z M6.56429107,14 C6.48602647,14 6.42353161,14.0285382 6.37680648,14.0856146 C6.34176263,14.1284218 6.31986023,14.1880033 6.31109926,14.264359 L6.30671878,14.3463061 L6.30671878,15.7449978 C6.30671878,15.9861294 6.26466616,16.1660162 6.18056093,16.2846581 C6.09645569,16.4033 5.95277591,16.4626209 5.74952159,16.4626209 C5.60233742,16.4626209 5.48786085,16.4334414 5.40609187,16.3750825 C5.32432289,16.3167235 5.26737664,16.2346361 5.23525311,16.1288204 C5.21383743,16.0582765 5.1995603,15.9761892 5.19242174,15.8825583 L5.18706782,15.7334543 L5.18706782,14.3463061 C5.18706782,14.2308707 5.16341322,14.1442942 5.11610403,14.0865765 C5.06879483,14.0288588 5.00483981,14 4.92423895,14 C4.84714249,14 4.78493966,14.0288588 4.73763046,14.0865765 C4.70214856,14.1298648 4.67997238,14.1893861 4.6711019,14.2651406 L4.66666667,14.3463061 L4.66666667,15.7026715 C4.66666667,15.9155856 4.68769298,16.0986789 4.72974559,16.2519514 C4.77179821,16.4052239 4.83779746,16.5309202 4.92774334,16.6290402 C5.01768922,16.7271603 5.13391798,16.799628 5.27642963,16.8464435 C5.41894128,16.8932589 5.58890395,16.9166667 5.78631763,16.9166667 C5.95219185,16.9166667 6.09703975,16.8948622 6.22086135,16.8512533 C6.34468295,16.8076444 6.45331888,16.7383832 6.54676914,16.6434697 C6.65540508,16.5318821 6.72928919,16.402338 6.76842149,16.2548373 C6.79777071,16.1442117 6.81611398,16.0130243 6.82345128,15.8612749 L6.82711993,15.7026715 L6.82711993,14.3463061 C6.82711993,14.2295881 6.80288127,14.1426909 6.75440395,14.0856146 C6.70592662,14.0285382 6.64255566,14 6.56429107,14 Z M9.20902696,14 C9.13660301,14 9.07907269,14.0272556 9.03643601,14.0817667 C9.0044585,14.1226501 8.98447255,14.1788647 8.97647817,14.2504106 L8.97248098,14.3270668 L8.97248098,16.0047274 L7.97197911,14.3424582 C7.94394403,14.2937189 7.91678504,14.2469034 7.89050216,14.2020119 C7.86421927,14.1571203 7.83852045,14.1205658 7.81340569,14.0923483 C7.78829093,14.0641308 7.75908773,14.041685 7.72579607,14.025011 C7.69250441,14.008337 7.65249602,14 7.60577089,14 C7.54619634,14 7.49071025,14.0182773 7.43931261,14.0548318 C7.38791496,14.0913863 7.35111892,14.1385224 7.32892448,14.1962401 C7.31646445,14.2312983 7.30815776,14.2751922 7.30400441,14.3279219 L7.3008894,14.4136434 L7.3008894,16.5895998 C7.3008894,16.6960569 7.32308384,16.7771823 7.36747272,16.832976 C7.41186159,16.8887698 7.47085207,16.9166667 7.54444415,16.9166667 C7.61569998,16.9166667 7.67410639,16.8890904 7.7196634,16.833938 C7.75383115,16.7925737 7.77518599,16.7364192 7.78372793,16.6654745 L7.7879989,16.5895998 L7.7879989,14.9369503 L8.76397008,16.5799802 C8.79200516,16.6248717 8.82004024,16.6688013 8.84807532,16.7117689 C8.8761104,16.7547365 8.90648174,16.792253 8.93918933,16.8243184 C8.97189692,16.8563838 9.00694077,16.8797915 9.04432087,16.8945416 C9.08170098,16.9092916 9.1237536,16.9166667 9.17047873,16.9166667 C9.33401669,16.9166667 9.42600679,16.8219035 9.44644904,16.632377 L9.45082952,16.5453496 L9.45082952,14.3270668 C9.45082952,14.2180446 9.42921914,14.1362779 9.3859984,14.0817667 C9.34277765,14.0272556 9.28378717,14 9.20902696,14 Z M11.7328616,14 C11.6756233,14 11.6297743,14.0134675 11.5953145,14.0404024 C11.5723413,14.058359 11.5461233,14.0828712 11.5166605,14.113939 L11.4700327,14.1654573 L10.4485045,15.3352023 L10.4485045,14.3463061 C10.4485045,14.2295881 10.4242659,14.1426909 10.3757885,14.0856146 C10.3273112,14.0285382 10.2639403,14 10.1856757,14 C10.1062429,14 10.043456,14.0288588 9.99731497,14.0865765 C9.96270917,14.1298648 9.94108055,14.1893861 9.9324291,14.2651406 L9.92810337,14.3463061 L9.92843191,16.5067509 C9.92908898,16.566152 9.93073166,16.6136489 9.93335995,16.6492414 C9.93686433,16.6966982 9.94679343,16.7383832 9.96314722,16.7742964 C9.98534166,16.8179053 10.0168811,16.8525359 10.0577656,16.8781882 C10.0986501,16.9038405 10.1412868,16.9166667 10.1856757,16.9166667 C10.2627721,16.9166667 10.3258511,16.8881285 10.3749124,16.8310521 C10.4117085,16.7882448 10.434706,16.7283026 10.443905,16.6512255 L10.4485045,16.5684367 L10.4485045,15.9854881 L10.8742873,15.5372142 L11.4893068,16.5761324 C11.5138375,16.6223065 11.5418726,16.6736111 11.5734121,16.7300462 C11.6049515,16.7864812 11.6434998,16.8316934 11.6890568,16.8656827 C11.7346138,16.899672 11.7936042,16.9166667 11.8660282,16.9166667 C11.9431247,16.9166667 12.0041594,16.8935796 12.0491323,16.8474055 C12.0941052,16.8012313 12.1165917,16.7467202 12.1165917,16.683872 C12.1165917,16.627437 12.1037423,16.5693986 12.0780435,16.509757 C12.0609109,16.469996 12.0380675,16.425817 12.0095133,16.3772201 L11.9623988,16.3010114 L11.2334867,15.1543536 L11.8660282,14.496372 C11.9442928,14.4142847 11.9834251,14.331556 11.9834251,14.248186 C11.9834251,14.1789248 11.9603546,14.1202452 11.9142135,14.0721471 C11.8680724,14.024049 11.8076218,14 11.7328616,14 Z M14.400376,14 C14.327952,14 14.2704217,14.0272556 14.227785,14.0817667 C14.1958075,14.1226501 14.1758216,14.1788647 14.1678272,14.2504106 L14.16383,14.3270668 L14.16383,16.0047274 L13.1633281,14.3424582 C13.135293,14.2937189 13.1081341,14.2469034 13.0818512,14.2020119 C13.0555683,14.1571203 13.0298695,14.1205658 13.0047547,14.0923483 C12.9796399,14.0641308 12.9504367,14.041685 12.9171451,14.025011 C12.8838534,14.008337 12.843845,14 12.7971199,14 C12.7375454,14 12.6820593,14.0182773 12.6306616,14.0548318 C12.579264,14.0913863 12.5424679,14.1385224 12.5202735,14.1962401 C12.5078135,14.2312983 12.4995068,14.2751922 12.4953534,14.3279219 L12.4922384,14.4136434 L12.4922384,16.5895998 C12.4922384,16.6960569 12.5144329,16.7771823 12.5588217,16.832976 C12.6032106,16.8887698 12.6622011,16.9166667 12.7357932,16.9166667 C12.807049,16.9166667 12.8654554,16.8890904 12.9110124,16.833938 C12.9451802,16.7925737 12.966535,16.7364192 12.9750769,16.6654745 L12.9793479,16.5895998 L12.9793479,14.9369503 L13.9553191,16.5799802 L14.0394243,16.7117689 L14.0394243,16.7117689 C14.0674594,16.7547365 14.0978307,16.792253 14.1305383,16.8243184 C14.1632459,16.8563838 14.1982898,16.8797915 14.2356699,16.8945416 C14.27305,16.9092916 14.3151026,16.9166667 14.3618277,16.9166667 C14.5253657,16.9166667 14.6173558,16.8219035 14.637798,16.632377 L14.6421785,16.5453496 L14.6421785,14.3270668 C14.6421785,14.2180446 14.6205682,14.1362779 14.5773474,14.0817667 C14.5341267,14.0272556 14.4751362,14 14.400376,14 Z M16.2461121,14 C16.0498666,14 15.8746473,14.0336686 15.7204544,14.1010059 C15.5662615,14.1683432 15.4354311,14.2655013 15.3279633,14.3924802 C15.2204955,14.5194591 15.1384345,14.6733729 15.0817802,14.8542216 C15.025126,15.0350704 14.9967989,15.2338757 14.9967989,15.4506376 C14.9967989,15.6622691 15.0239579,15.8591505 15.0782759,16.0412819 C15.1325938,16.2234132 15.2129026,16.379251 15.3192023,16.5087951 C15.425502,16.6383392 15.5580846,16.7387038 15.71695,16.809889 C15.8758154,16.8810741 16.0557072,16.9166667 16.2566253,16.9166667 C16.4587115,16.9166667 16.6380192,16.8820361 16.7945483,16.8127748 C16.9510775,16.7435136 17.083076,16.6434697 17.1905438,16.5126429 C17.2980116,16.3818162 17.3786125,16.2272611 17.4323464,16.0489776 C17.4860803,15.8706941 17.5129472,15.67253 17.5129472,15.4544855 C17.5129472,15.159484 17.4638859,14.9026404 17.3657631,14.6839545 C17.2676403,14.4652686 17.1230844,14.2966047 16.9320955,14.1779628 C16.7411065,14.0593209 16.5124454,14 16.2461121,14 Z M20.6833409,14 C20.6155894,14 20.5638997,14.0192392 20.5282718,14.0577177 C20.4926439,14.0961961 20.4675292,14.139805 20.4529276,14.1885444 C20.4431932,14.2210373 20.4330694,14.261796 20.4225562,14.3108204 L20.4064945,14.3905563 L20.0700735,16.037434 L19.6898478,14.496372 C19.6583083,14.3693931 19.6331935,14.2783275 19.6145035,14.223175 C19.5958134,14.1680226 19.5622297,14.1170386 19.5137524,14.0702232 C19.4652751,14.0234077 19.3972316,14 19.309622,14 C19.2231805,14 19.154845,14.0224458 19.1046155,14.0673373 C19.054386,14.1122288 19.018174,14.1654573 18.9959796,14.2270229 C18.9811833,14.2680665 18.965089,14.3216514 18.9476969,14.3877773 L18.9206353,14.496372 L18.5439139,16.037434 L18.207493,14.3905563 C18.1829623,14.2635774 18.1543431,14.16674 18.1216355,14.100044 C18.0889279,14.033348 18.0252649,14 17.9306466,14 C17.861727,14 17.8039046,14.025011 17.7571795,14.075033 C17.7104544,14.125055 17.6870918,14.1866205 17.6870918,14.2597296 C17.6870918,14.298208 17.6928027,14.3483725 17.7042244,14.4102231 L17.72564,14.5117634 L18.153175,16.410675 C18.1660244,16.4671101 18.180626,16.528355 18.1969798,16.5944096 C18.2133336,16.6604643 18.2343599,16.7175407 18.2600587,16.7656387 C18.2857576,16.8137368 18.3193412,16.8509326 18.3608098,16.8772263 C18.4022784,16.9035199 18.4551362,16.9166667 18.5193832,16.9166667 C18.5988159,16.9166667 18.6624789,16.8945416 18.7103722,16.8502913 C18.7582654,16.8060411 18.7918491,16.7560191 18.8111233,16.7002254 C18.8255788,16.6583801 18.8438126,16.5961532 18.8658245,16.5135448 L18.8890958,16.4241425 L19.309622,14.7330145 L19.7248916,16.4241425 C19.7587673,16.5562518 19.7850502,16.6495621 19.8037403,16.7040732 C19.8224303,16.7585844 19.855722,16.8076444 19.9036152,16.8512533 C19.9515085,16.8948622 20.0151715,16.9166667 20.0946042,16.9166667 C20.1787094,16.9166667 20.2438326,16.8942209 20.2899737,16.8493294 C20.3361147,16.8044378 20.3688223,16.7521713 20.3880964,16.6925297 C20.402552,16.6477985 20.4198002,16.5837679 20.4398409,16.500438 L20.4608124,16.410675 L20.8883474,14.5117634 C20.9140462,14.3963281 20.9268956,14.3123168 20.9268956,14.2597296 C20.9268956,14.1853379 20.903241,14.1234517 20.8559318,14.074071 C20.8086226,14.0246903 20.7510923,14 20.6833409,14 Z M23.0915308,14 C23.0191068,14 22.9615765,14.0272556 22.9189398,14.0817667 C22.8869623,14.1226501 22.8669764,14.1788647 22.858982,14.2504106 L22.8549848,14.3270668 L22.8549848,16.0047274 L21.8544829,14.3424582 C21.8264478,14.2937189 21.7992889,14.2469034 21.773006,14.2020119 C21.7467231,14.1571203 21.7210243,14.1205658 21.6959095,14.0923483 C21.6707947,14.0641308 21.6415915,14.041685 21.6082999,14.025011 C21.5750082,14.008337 21.5349998,14 21.4882747,14 C21.4287002,14 21.3732141,14.0182773 21.3218164,14.0548318 C21.2704188,14.0913863 21.2336227,14.1385224 21.2114283,14.1962401 C21.1989683,14.2312983 21.1906616,14.2751922 21.1865082,14.3279219 L21.1833932,14.4136434 L21.1833932,16.5895998 C21.1833932,16.6960569 21.2055877,16.7771823 21.2499765,16.832976 C21.2943654,16.8887698 21.3533559,16.9166667 21.426948,16.9166667 C21.4982038,16.9166667 21.5566102,16.8890904 21.6021672,16.833938 C21.636335,16.7925737 21.6576898,16.7364192 21.6662317,16.6654745 L21.6705027,16.5895998 L21.6705027,14.9369503 L22.6464739,16.5799802 L22.7305791,16.7117689 L22.7305791,16.7117689 C22.7586142,16.7547365 22.7889856,16.792253 22.8216931,16.8243184 C22.8544007,16.8563838 22.8894446,16.8797915 22.9268247,16.8945416 C22.9642048,16.9092916 23.0062574,16.9166667 23.0529825,16.9166667 C23.2165205,16.9166667 23.3085106,16.8219035 23.3289529,16.632377 L23.3333333,16.5453496 L23.3333333,14.3270668 C23.3333333,14.2180446 23.311723,14.1362779 23.2685022,14.0817667 C23.2252815,14.0272556 23.166291,14 23.0915308,14 Z M16.2461121,14.4540457 C16.3921282,14.4540457 16.5214984,14.4928448 16.6342227,14.5704431 C16.7469471,14.6480413 16.8336806,14.7625147 16.8944233,14.9138632 C16.955166,15.0652118 16.9855373,15.2441366 16.9855373,15.4506376 C16.9855373,15.6738127 16.9525377,15.8617158 16.8865384,16.014347 C16.8205392,16.1669782 16.7317614,16.2798483 16.6202052,16.3529573 C16.5086489,16.4260664 16.3862875,16.4626209 16.2531209,16.4626209 C16.1491575,16.4626209 16.053663,16.4414578 15.9666374,16.3991315 C15.8796119,16.3568052 15.8025154,16.2929951 15.735348,16.2077012 C15.6681806,16.1224073 15.6161989,16.0149883 15.5794029,15.8854442 C15.5426069,15.7559 15.5242088,15.6109645 15.5242088,15.4506376 C15.5242088,15.2915934 15.5426069,15.1482611 15.5794029,15.0206409 C15.6161989,14.8930207 15.6664285,14.788167 15.7300914,14.7060796 C15.7937544,14.6239922 15.8696828,14.5614647 15.9578765,14.5184971 C16.0460701,14.4755295 16.1421487,14.4540457 16.2461121,14.4540457 Z" id="形状结合"></path>
        </g>
    </g>
</svg>