<?xml version="1.0" encoding="UTF-8"?>
<svg width="48px" height="48px" viewBox="0 0 48 48" version="1.1" xmlns="http://www.w3.org/2000/svg" xmlns:xlink="http://www.w3.org/1999/xlink">
    <!-- Generator: Sketch 64 (93537) - https://sketch.com -->
    <title>icon/加气泡/其他/用户-normal</title>
    <desc>Created with Sketch.</desc>
    <defs>
        <linearGradient x1="23.4254906%" y1="7.42293777%" x2="80.1991547%" y2="88.6253031%" id="linearGradient-1">
            <stop stop-color="#00F2FF" stop-opacity="0.5" offset="0%"></stop>
            <stop stop-color="#03C8FF" stop-opacity="0.0120322841" offset="19.8635755%"></stop>
            <stop stop-color="#7C3DFF" stop-opacity="0" offset="73.8351997%"></stop>
            <stop stop-color="#7636FF" stop-opacity="0.6" offset="100%"></stop>
        </linearGradient>
        <linearGradient x1="50%" y1="30.3465981%" x2="76.432313%" y2="92.9355556%" id="linearGradient-2">
            <stop stop-color="#00DBDE" offset="0%"></stop>
            <stop stop-color="#5B47FF" offset="100%"></stop>
        </linearGradient>
    </defs>
    <g id="icon/加气泡/其他/用户-normal" stroke="none" stroke-width="1" fill="none" fill-rule="evenodd">
        <circle id="椭圆形" fill="url(#linearGradient-1)" cx="24" cy="24" r="24"></circle>
        <g id="icon/应用/其他/用户-normal" transform="translate(10.000000, 10.000000)" fill="url(#linearGradient-2)" fill-rule="nonzero">
            <path d="M26.8088889,25.0027778 C26.7917778,24.6483333 26.7013333,24.2181111 26.5351111,23.7133333 C26.3701111,23.2097778 26.1391111,22.8088889 25.8421111,22.5131111 C25.561,22.2234444 24.9987778,21.9056667 24.1566667,21.5597778 C23.2116392,21.1726394 22.2580672,20.806696 21.2966667,20.4622222 C20.2308889,20.0772222 19.4462222,19.7582222 18.9426667,19.5015556 C18.3232827,19.1876078 17.8136142,18.6932805 17.4808889,18.0837778 C17.1428155,17.493448 16.9634333,16.8256073 16.9602222,16.1453333 C16.9602222,15.6906667 17.2327778,15.1541111 17.7791111,14.5344444 C18.0675556,14.2044444 18.3388889,13.6911111 18.5955556,12.9993333 C19.3545556,12.6925556 19.7346667,12.0521111 19.7346667,11.078 C19.7346667,10.3605556 19.6148889,9.84355556 19.3753333,9.52944444 C19.4425556,9.07722222 19.5171111,8.37811111 19.599,7.43577778 C19.6534865,6.71624151 19.5274527,5.99448751 19.2323333,5.336 C18.9416133,4.65447661 18.5234624,4.03471725 18.0003333,3.51 C17.4675014,2.9804637 16.8446306,2.55004134 16.1608889,2.23888889 C15.4847525,1.92061617 14.747291,1.75376968 14,1.75 C13.2727778,1.75 12.5455556,1.91377778 11.8391111,2.23888889 C11.1552531,2.54983624 10.5323479,2.9802824 9.99966667,3.51 C9.47579641,4.03436134 9.0571841,4.65418968 8.76644444,5.336 C8.47174354,5.99459457 8.34613055,6.71634413 8.401,7.43577778 C8.48288889,8.37688889 8.55744444,9.076 8.62344444,9.52944444 C8.38388889,9.84355556 8.26533333,10.3605556 8.26533333,11.078 C8.26533333,12.0521111 8.64422222,12.6925556 9.40444444,12.9993333 C9.66111111,13.6923333 9.93244444,14.2044444 10.2221111,14.5344444 C10.7672222,15.1541111 11.0397778,15.6906667 11.0397778,16.1453333 C11.0397778,16.8138889 10.8662222,17.4604444 10.5191111,18.0837778 C10.1863858,18.6932805 9.67671734,19.1876078 9.05733333,19.5015556 C8.55377778,19.7582222 7.76911111,20.0772222 6.70333333,20.4622222 C5.63877778,20.846 4.68422222,21.2114444 3.84211111,21.5585556 C3,21.9056667 2.43777778,22.2234444 2.15788889,22.5118889 C1.86088889,22.8101111 1.62866667,23.2097778 1.46366667,23.7133333 C1.29866667,24.2181111 1.207,24.6471111 1.19111111,25.0027778 L1.16666667,25.5344444 L26.8333333,25.5344444 L26.8088889,25.0015556 L26.8088889,25.0027778 Z" id="路径"></path>
        </g>
    </g>
</svg>